<?xml version="1.0" encoding="UTF-8" standalone="no"?>
<svg width="90px" height="56px" viewBox="0 0 90 56" version="1.1" xmlns="http://www.w3.org/2000/svg" xmlns:xlink="http://www.w3.org/1999/xlink">
    <!-- Generator: Sketch 3.7.2 (28276) - http://www.bohemiancoding.com/sketch -->
    <title>gv</title>
    <desc>Created with Sketch.</desc>
    <defs></defs>
    <g id="Page-1" stroke="none" stroke-width="1" fill="none" fill-rule="evenodd">
        <g id="Desktop" transform="translate(-210.000000, -2903.000000)" fill="#FFFFFF">
            <g id="gv" transform="translate(210.000000, 2903.000000)">
                <g id="Page-1">
                    <g>
                        <g id="gv">
                            <path d="M27.9259057,56 C12.5081018,56 0.00949130597,43.464176 0.00949130597,27.999776 C0.00949130597,12.535376 12.5081018,0 27.9259057,0 C29.9338213,0 31.8913771,0.216496 33.7791439,0.62048 L40.0086848,13.052032 C36.774268,10.875984 32.9010298,9.532656 28.6760546,9.38616 C28.4203474,9.37664 28.1631885,9.3716 27.9048016,9.3716 L27.9048016,9.374064 C17.6525061,9.3856 9.34481384,17.767232 9.34481384,28.053088 C9.34481384,38.346224 17.6638958,46.744768 27.9259057,46.744768 C36.5992929,46.744768 43.8841563,40.357632 45.9320472,32.832912 L26.118536,32.832912 L26.118536,23.158352 L45.1591192,23.158352 L53.3304715,39.54048 C48.9291812,49.20384 39.2098512,56 27.9259057,56" id="Fill-1"></path>
                            <polyline id="Fill-2" points="62.3589454 55.842416 56.9383994 45.050432 79.0977172 0.584192 89.9899504 0.584192 62.3589454 55.842416"></polyline>
                        </g>
                    </g>
                </g>
            </g>
        </g>
    </g>
</svg>