<?xml version="1.0" encoding="UTF-8" standalone="no"?>
<svg width="474px" height="52px" viewBox="0 0 474 52" version="1.1" xmlns="http://www.w3.org/2000/svg" xmlns:xlink="http://www.w3.org/1999/xlink">
    <!-- Generator: Sketch 3.7.2 (28276) - http://www.bohemiancoding.com/sketch -->
    <title>Group</title>
    <desc>Created with Sketch.</desc>
    <defs>
        <polygon id="path-1" points="0.00694237166 38.9930564 105.030909 38.9930564 105.030909 0.037148368 0.00694237166 0.037148368"></polygon>
    </defs>
    <g id="Page-1" stroke="none" stroke-width="1" fill="none" fill-rule="evenodd">
        <g id="Artboard-1-Copy" transform="translate(-20.000000, -22.000000)">
            <g id="Group" transform="translate(20.000000, 15.000000)">
                <text id="Design-Sprint" font-family="Archistico-Bold, Archistico" font-size="50" font-weight="bold" fill="#FFFFFF">
                    <tspan x="117" y="46">Design Sprint</tspan>
                </text>
                <g id="yoomee_logo_art_red" transform="translate(0.000000, 10.000000)">
                    <mask id="mask-2" fill="white">
                        <use xlink:href="#path-1"></use>
                    </mask>
                    <g id="Clip-2"></g>
                    <path d="M64.618207,2.10542136 C65.236078,2.05785757 65.6665051,2.20170623 65.9590103,2.42910979 C66.3752055,2.75279822 66.8346748,3.53881602 66.6034938,5.98968249 C66.5165985,6.9115638 66.3570396,9.01073591 67.2816478,9.16476855 C67.8126236,9.2532997 68.5761687,9.01073591 69.3437636,8.33245994 C69.6672782,8.05506231 70.1921215,7.60986053 70.6844513,7.13017211 C74.2184656,3.68729377 77.6359638,2.75719585 80.1651855,3.01017507 C81.0925706,3.10298813 82.1958292,3.30724629 82.3711241,4.53499407 C82.3711241,5.74341543 81.83714,5.89698516 81.4616734,6.01872997 C81.6624236,6.51612463 81.9104977,7.08874184 81.9984344,7.74155786 C82.0912308,8.43221662 82.0759576,9.10875668 81.9894093,9.76909496 C81.5449818,13.166724 77.9951158,16.6286973 75.4727208,18.1830267 C73.691771,19.2806973 71.7075255,20.1891543 69.8581934,20.1429792 C69.1221863,20.104095 67.0804348,20.0928694 66.5403183,17.3205134 C66.207663,15.615276 66.7279937,13.2724985 67.343435,11.9393234 C67.343435,11.9393234 66.6277921,12.5026825 65.5556585,12.2167211 C64.8622313,12.0317893 64.4770454,11.3844125 64.4770454,11.3844125 C63.73722,12.771632 61.6333343,15.2302522 60.9939418,15.8095816 C58.0060608,18.5171306 55.4673512,20.1396231 52.4749576,20.1396231 C49.6238412,20.1396231 48.6124534,18.2151988 48.6408014,16.3067448 C48.6593144,15.0464777 49.226159,13.0538902 49.9082471,11.926362 C49.2852849,12.1309674 47.9242329,12.1750593 47.3220979,11.84327 C46.3824479,11.325276 46.2866432,10.1744866 46.2866432,10.1744866 C42.7558687,14.887816 38.4364407,20.4951365 36.940591,22.4517329 C37.5416847,23.3766231 39.0211041,25.6269347 39.3909011,28.2780089 C39.8224852,27.7538813 40.8861723,26.3920059 41.8502363,25.4113353 C44.8196043,22.3899347 47.6273308,20.7033294 50.0747483,20.7033294 C53.2014768,20.7033294 54.4475168,22.9450772 54.2009469,25.0209881 C56.5023431,22.7192938 58.7821022,21.0505104 61.8210097,21.0505104 C65.0429644,21.0505104 66.3661804,23.2371721 66.1935468,25.6540148 C66.0209132,28.0709733 64.8415199,30.459 63.639564,32.3901365 C64.0072783,32.6745935 65.6040237,32.8954006 66.735746,32.7823353 C67.3521129,32.7204214 68.0551438,32.4891988 68.366162,32.3099377 C68.2941928,31.7286409 68.2877132,31.0961929 68.3415166,30.4798309 C68.7349176,25.9845312 72.3804727,20.7395519 77.2397858,20.8423175 C79.8209595,20.8970564 80.9252595,22.6611988 80.6646891,24.6482315 C80.3580677,26.9883472 78.36364,29.6439347 75.4483068,31.8690178 C74.551468,32.5534273 73.6456042,33.2115668 73.1086118,33.5184748 C73.3769345,33.8254985 74.437266,34.1921217 75.7550439,34.1921217 C78.6577652,34.1921217 81.5521556,32.9021128 82.3153537,32.3867804 C82.2001103,32.1277834 82.1714152,31.2071751 82.2475499,30.5453323 C82.7877821,25.8427656 86.7743233,20.4322967 91.4677137,20.4322967 C93.3974616,20.4322967 95.1742459,21.3382077 95.0016122,23.9275994 C94.8523513,26.1671484 92.8137238,28.9531602 89.4627567,31.5873383 C88.8310009,32.0836914 88.1439375,32.5990237 87.4477333,33.0797537 C87.4477333,33.0797537 88.0688442,33.9484006 90.5714535,33.9484006 C93.7935239,33.9484006 97.5638102,32.3447715 102.332988,29.4257893 C103.755827,28.5551751 105.095011,29.7772522 105.028595,31.0217804 C105.001867,31.5258872 104.486049,32.1932849 103.561441,32.8096469 C98.5719583,36.136451 94.2333231,37.1851691 90.3990512,37.2077359 C88.9300454,37.2164154 87.6019697,37.0151662 86.4493046,36.6191484 C85.4257676,36.2679169 84.3579151,35.609546 83.9517864,35.1450178 C82.2564592,35.9856588 80.1338291,36.7383472 78.2878525,37.125454 C74.4735978,37.9254748 71.0851419,37.0481484 69.7023371,35.4634985 C68.5595071,35.912635 67.417834,36.1898012 66.3290387,36.2283383 C65.0448157,36.2745134 62.6623094,35.9892463 61.6100773,35.2645638 C61.3031088,35.7243472 60.4400563,36.7298991 59.3452443,36.7298991 C58.1814714,36.7298991 57.3623872,35.0994214 57.4485883,33.6044599 C57.5219461,32.3327359 58.0639139,31.1047567 59.8073748,30.7751662 C59.9794299,30.7426469 60.4591478,30.6795757 60.6701959,30.7756291 C61.7635037,29.2219941 62.3731597,27.4367893 62.5375782,26.1709674 C62.6444907,25.3482641 62.4097228,24.5460445 61.6635336,24.4096024 C58.5989393,23.8499466 54.4885925,28.876549 51.4532719,33.6204303 C51.0094229,34.3875846 50.568698,35.0700267 50.1793467,35.6214659 C49.7390846,36.2453501 49.1642562,36.4983294 48.62009,36.4872196 C47.4271591,36.4623383 46.7790887,35.6669466 46.7790887,34.8613709 C46.7790887,34.2284599 47.911621,32.7380119 48.444448,31.793911 C50.058318,28.934181 50.712058,27.2893531 50.76563,25.9978398 C50.8220946,24.6358487 50.4437353,24.0375401 49.4174214,24.0375401 C48.0523197,24.0375401 45.5301561,26.0326736 42.5317458,29.6654599 C41.4251317,31.0063887 39.7608138,33.2722077 39.7608138,33.2722077 C38.9072492,35.5533027 37.6399193,36.8173887 36.0989442,37.0637715 C35.0742501,37.2278724 33.5919381,36.7584837 34.134253,35.1893412 C34.5946479,33.8580178 36.413665,31.7616231 36.413665,31.7616231 C36.5245116,29.2028991 35.3224399,26.2899347 34.6445173,25.4113353 C33.5794418,26.6641958 31.9830434,28.3533472 30.8263286,29.5272819 C25.5802097,34.8525757 18.8542087,38.7116083 12.0533457,38.9818309 C4.72717657,39.2732315 -0.182468669,36.0504659 0.00520677875,29.3521869 C0.0851597591,26.4853976 1.25367662,23.2239792 4.54574926,19.9823501 C8.42861773,16.1590772 14.8115499,14.0442819 20.9557803,14.2208813 C26.187783,14.3713264 31.0690802,16.0396469 34.6736753,19.7632789 C35.8151169,18.461003 38.1029755,15.6039347 39.4398448,13.7422344 C36.965815,14.9506558 35.067192,15.5945608 33.0002166,15.5945608 C30.3659337,15.5945608 28.5216926,14.4034985 28.4346816,11.7616825 C28.3082147,7.92510089 33.1597754,2.97048071 35.6621533,0.660106825 C36.0073049,0.341510386 36.3789532,0.190602374 36.7389151,0.165605341 C38.174829,0.0661958457 39.3851158,1.60015727 38.0461637,3.24348071 C36.8079917,4.76309199 31.9633734,9.14000297 31.9633734,11.7281217 C31.9633734,12.4187804 32.4692409,12.5076588 33.1139558,12.5338131 C35.3271839,12.6231543 39.9892178,10.3065312 43.8126133,7.64237982 C44.7906778,6.72165579 46.1138938,4.30481306 47.5524689,2.40573294 C48.6993487,0.891329377 49.5713106,-0.0682789318 50.8318139,0.0464065282 C51.6228972,0.118504451 52.2747858,0.842261128 52.1419551,2.04107715 C52.0621179,2.76032047 51.6161862,3.65083976 50.9821162,4.67409792 C50.6451798,5.21801484 50.328492,5.76436202 49.9272229,6.37597923 C49.3309889,7.28478338 49.2011665,8.32621068 49.7469526,8.53324629 C50.6101208,8.86040653 52.2769843,7.9877092 53.228552,7.08422849 C56.1639025,4.46127596 59.6136826,2.83554303 62.9049453,2.70650742 C62.9049453,2.70650742 63.4161353,2.19788724 64.618207,2.10542136 L64.618207,2.10542136 Z M53.2052951,16.9803917 C55.8034777,16.9803917 61.548753,11.7543917 62.5659262,8.91827003 C62.5659262,8.91827003 61.8416054,7.7005905 62.1654671,5.83553412 C61.4730812,5.9901454 59.4689342,6.66413947 57.0264921,8.56298813 C56.1576543,9.2387181 54.6935081,10.7498813 53.7128981,12.3878813 C51.9178322,15.3867151 52.137674,16.9324807 53.2052951,16.9803917 L53.2052951,16.9803917 Z M32.4973575,22.4700178 C32.2288034,22.0861513 31.7574163,21.5627181 31.1548185,21.0505104 C28.853538,19.0937982 25.286316,17.4133264 19.8204711,17.4133264 C15.5069442,17.4133264 10.1959141,19.0775964 6.96666996,22.5558872 C4.74210267,24.9520148 3.83623887,27.2971068 3.83623887,29.3921128 C3.83623887,33.5954332 6.64303974,35.5789941 11.5954963,35.5068961 C16.4258828,35.4368813 22.3780408,33.1428249 28.9010932,26.4844718 C30.1349841,25.2247834 31.3692221,23.8220564 32.4973575,22.4700178 L32.4973575,22.4700178 Z M74.6044615,24.8483234 C73.7135238,25.6868813 72.6810774,27.1334688 72.1879376,28.4161869 C71.9960967,28.9149703 71.6991946,30.2040534 71.7374934,30.8564065 C72.1976569,30.6259941 73.2675921,29.8720326 73.7876915,29.4075045 C74.5931223,28.7169614 75.5575334,27.6239199 76.059814,26.8816469 C77.2399015,25.1369466 77.226711,23.8313145 76.4544878,23.8313145 C75.9091645,23.8313145 75.2563502,24.2348546 74.6044615,24.8483234 L74.6044615,24.8483234 Z M88.7341548,24.5664125 C88.3102073,24.9465757 87.1915598,26.1737448 86.3823107,27.840908 C86.102996,28.4161869 85.604418,29.9506113 85.6811312,30.564543 C86.0070755,30.3921098 86.831945,29.9072136 87.809778,29.0492136 C89.0754881,27.9390445 90.3594797,26.4980119 90.8963565,25.4623709 C91.4111333,24.4694332 91.4139103,23.6206914 90.6946806,23.5535697 C90.0705614,23.4954748 89.3715802,23.9948368 88.7341548,24.5664125 L88.7341548,24.5664125 Z M77.7861504,6.64064688 C74.9579439,7.39634421 72.326785,10.1202107 71.109903,12.2461157 C70.2652478,13.7212878 69.9148894,14.9034392 69.8674499,15.5881958 C69.786687,16.5044065 70.185989,16.8110831 70.7100224,16.8496202 C72.7010946,16.9958991 77.6681301,12.9214985 78.3467469,9.47318101 C78.5340752,8.52121068 78.4852472,7.45837389 77.8341685,6.69746884 L77.7861504,6.64064688 L77.7861504,6.64064688 Z" id="Fill-1" fill="#FFFFFF" mask="url(#mask-2)"></path>
                </g>
            </g>
        </g>
    </g>
</svg>