<?xml version="1.0" encoding="UTF-8" standalone="no"?>
<svg width="281px" height="225px" viewBox="0 0 281 225" version="1.1" xmlns="http://www.w3.org/2000/svg" xmlns:xlink="http://www.w3.org/1999/xlink">
    <!-- Generator: Sketch 3.7.2 (28276) - http://www.bohemiancoding.com/sketch -->
    <title>step-1</title>
    <desc>Created with Sketch.</desc>
    <defs>
        <polygon id="path-1" points="143.614806 0.307034796 0.134198911 0.307034796 0.134198911 116.072323 143.614806 116.072323 143.614806 0.307034796"></polygon>
    </defs>
    <g id="Page-1" stroke="none" stroke-width="1" fill="none" fill-rule="evenodd">
        <g id="Desktop" transform="translate(-532.000000, -610.000000)">
            <g id="step-1" transform="translate(532.000000, 610.000000)">
                <g id="Group-3">
                    <mask id="mask-2" fill="white">
                        <use xlink:href="#path-1"></use>
                    </mask>
                    <g id="Clip-2"></g>
                    <path d="M64.319739,112.736029 C65.0961762,112.186974 65.7262443,111.801989 66.2872126,111.334289 C68.6791566,109.339924 70.9730673,107.218593 73.4494289,105.336558 C76.8360023,102.762844 80.3471596,100.351157 83.8321067,97.9091755 C84.214028,97.6416263 84.7732943,97.5408699 85.2552912,97.526233 C85.7481808,97.5112557 86.0102837,97.3676097 86.2618343,96.9410968 C86.5508283,96.45059 86.9072201,95.7769516 87.3630068,95.6513464 C88.449202,95.3521407 89.6092625,95.2411725 90.7427723,95.2180257 C91.956615,95.193177 93.1735212,95.3660968 94.3904274,95.4328139 C94.943907,95.4634493 95.5018116,95.4191982 96.05427,95.4583434 C97.1605484,95.5362935 98.2685287,95.756528 99.3690204,95.7197655 C100.850753,95.6700681 102.326017,95.4304312 103.804346,95.2769138 C105.57371,95.0931014 107.353627,94.9828139 109.110738,94.7186687 C112.574921,94.198888 116.026849,93.5950303 119.483884,93.0252118 C120.999996,92.7753631 122.609376,92.7641301 124.011116,92.2191604 C126.170911,91.37941 128.192167,90.1815658 130.260397,89.1127307 C130.509225,88.984062 130.74784,88.7474887 130.882636,88.5013843 C131.429648,87.5040318 132.026698,86.518593 132.432447,85.4623525 C133.008393,83.9629198 133.448862,82.4100454 133.916222,80.8704463 C134.445533,79.1269516 135.151849,77.4028593 135.404081,75.6171558 C135.85306,72.4392436 136.029043,69.2221861 136.298294,66.0197655 C136.503551,63.5805068 136.771441,61.1412481 136.8402,58.6972239 C136.933468,55.3790696 136.868453,52.0561498 136.861986,48.7349319 C136.857901,46.735121 136.785738,44.7339486 136.835095,42.7354992 C136.898748,40.1559985 137.079837,37.5795613 137.162553,35.0004009 C137.290541,31.0052042 137.410359,27.0089864 137.464822,23.0124281 C137.484225,21.6127307 137.224845,20.2099697 137.225526,18.8089107 C137.226887,15.8297882 137.318453,12.8506657 137.362364,9.87120272 C137.366449,9.57812405 137.294626,9.28402421 137.271479,9.09646747 C136.313952,9.34155068 135.451396,9.77044629 134.606539,9.73844932 C132.128476,9.64450076 129.657901,9.35448563 127.182901,9.16522693 C125.409452,9.02940998 123.633279,8.93614221 121.858468,8.81666415 C119.780707,8.67710287 117.704308,8.5072466 115.625185,8.39117247 C113.264557,8.25944024 110.901207,8.16787443 108.538877,8.0674584 C106.820571,7.99427383 105.101585,7.93844932 103.383279,7.8676475 C103.016335,7.8526702 102.650753,7.78118759 102.284489,7.77778366 C99.4068041,7.75361573 96.5287784,7.75429652 93.6514334,7.71481089 C92.5536649,7.69983359 91.4531732,7.51227685 90.3598298,7.5558472 C87.7037405,7.66170953 85.0530976,7.92789713 82.3966679,7.99937973 C78.5720083,8.10183812 74.7442852,8.07392587 70.918264,8.13111195 C68.6645197,8.16481089 66.4117965,8.27407716 64.1577118,8.31390318 C62.1340734,8.34998487 60.1063502,8.27305598 58.0857753,8.36326021 C55.6288162,8.47286687 53.1776437,8.71420575 50.7227269,8.87997731 C49.6593381,8.9518003 48.5918646,8.96371407 47.527795,9.02668684 C44.6096029,9.19960666 41.6937935,9.43345688 38.773559,9.55293495 C35.8036271,9.67445537 32.8285893,9.66662632 29.8569554,9.75546899 C26.4618722,9.8569062 23.0688313,10.0192738 19.6740885,10.122413 C16.9298374,10.2061498 14.1835439,10.2361044 11.641146,8.93818457 C11.2524168,8.73973525 11.0638389,8.87385023 10.8987481,9.22922088 C10.1549887,10.8328139 9.52219743,12.4493419 9.0122882,14.1683283 C8.296441,16.5810363 7.8307829,19.0087216 7.50264372,21.4714675 C7.24666793,23.3916263 7.16463313,25.341059 7.10914902,27.2806203 C7.06115356,28.9485477 7.17995083,30.6209002 7.18914145,32.2912103 C7.19935325,34.1507791 7.15748487,36.010348 7.15884644,37.8702572 C7.1608888,40.6948411 7.10778744,43.5224887 7.20990545,46.3440091 C7.37125189,50.8133737 7.63301437,55.2793343 7.87094932,59.7456354 C7.96285552,61.4710893 8.09867247,63.1941604 8.22563918,64.9172315 C8.42068457,67.569236 8.62968608,70.219879 8.82268911,72.8718835 C8.86694024,73.4811876 8.88566188,74.0938956 8.88906581,74.7052421 C8.90131997,76.8578896 9.07696293,79.0285779 8.86251513,81.1590998 C8.59428517,83.8274433 8.60653933,86.458003 8.94693268,89.1059228 C9.05551815,89.9511195 9.43812027,90.60059 10.0583169,91.1598563 C12.2113048,93.1021407 14.7581278,94.3697655 17.472084,95.2421936 C21.4815772,96.5309228 25.6391415,97.1010817 29.8259796,97.5163616 C33.6165998,97.8924962 37.3827118,97.6018003 41.1614183,97.4122012 C43.394739,97.2998714 45.6358888,97.3543343 47.8726135,97.3032753 C51.1730673,97.227708 54.4752231,97.1746067 57.7712519,97.006112 C58.9377799,96.9465431 59.8374395,97.2171558 60.6349811,98.0538427 C60.8276437,98.2560363 61.2670915,98.3479425 61.5635741,98.3019894 C62.3233321,98.1842133 62.929913,98.4507413 63.051093,99.1083812 C63.2005257,99.9178366 63.3571067,100.730015 63.4340356,101.54798 C63.7451551,104.861029 64.0297239,108.17646 64.3156543,111.491891 C64.3456089,111.835688 64.319739,112.184592 64.319739,112.736029 M61.8484834,115.370673 C61.7756392,115.420711 61.5863805,115.550401 61.3967814,115.680431 C61.3477648,115.661369 61.2807073,115.655923 61.2524546,115.619841 C60.9954576,115.293404 60.7881581,114.75388 60.4811233,114.690567 C60.1832791,114.629297 59.7863805,115.057852 59.4299887,115.266853 C59.2060098,115.397905 58.9769251,115.520446 58.6178101,115.720598 C58.378854,114.745371 58.061267,113.873283 57.9717436,112.978389 C57.8505635,111.769652 57.9200038,110.542874 57.8805182,109.324947 C57.8035893,106.934365 57.6868343,104.544803 57.6316906,102.15388 C57.6126286,101.336936 57.0125151,101.433268 56.5730673,101.433268 C54.0160325,101.434289 51.4589977,101.479902 48.9023033,101.523472 C46.279913,101.567723 43.6558207,101.584402 41.0358132,101.689584 C37.1383094,101.846165 33.2397844,102.275401 29.3487481,102.202216 C26.1010552,102.141286 22.859149,101.562277 19.6233699,101.144955 C16.1346785,100.694614 12.7698903,99.7033888 9.50687973,98.4306581 C6.31501135,97.1854992 3.75218986,95.113525 2.19114599,91.9849697 C1.19072995,89.9790318 1.06716717,87.8015356 1.12265129,85.6066793 C1.1781354,83.4268003 1.29523071,81.2469213 1.28467852,79.0673828 C1.26936082,75.9238502 1.22306732,72.7782753 1.0811233,69.6384871 C0.886077912,65.3291074 0.56815053,61.025174 0.345873676,56.7171558 C0.255329047,54.959705 0.355064297,53.1910212 0.2321823,51.4373147 C0.000374432678,48.1273298 0.228437973,44.8374281 0.415654312,41.5373147 C0.519133888,39.7073601 0.316259455,37.8617474 0.323067322,36.0232829 C0.335321483,32.8276702 0.280858548,29.6242284 0.483052194,26.4388275 C0.666183812,23.5550151 1.24110817,20.6980938 1.47700076,17.815643 C1.62711422,15.9812632 2.54311271,14.4416641 3.04076778,12.7471861 C3.45706884,11.3297882 3.99761346,9.94779123 4.50888427,8.55966717 C4.63551059,8.21586989 4.81728064,7.87207262 5.05010968,7.5915885 C6.14992057,6.26950076 7.16361195,4.84495461 8.42885401,3.70123298 C9.40884644,2.81586989 10.7370613,2.35361573 12.1547995,2.69434947 C13.8138767,3.09329047 15.4784002,2.892118 17.1442852,2.78353253 C21.9802534,2.4679879 26.8141793,2.11874433 31.6528707,1.85562027 C34.7106241,1.68950832 37.7765469,1.68167927 40.8366831,1.5523298 C45.4401626,1.3579652 50.0402383,1.06897126 54.644739,0.912390318 C60.4518495,0.714962179 66.2620234,0.605355522 72.0711762,0.467496218 C74.8930371,0.400438729 77.7152383,0.311596067 80.5374395,0.308532526 C86.8735212,0.302065053 93.2102837,0.31397882 99.5463654,0.375249622 C103.222954,0.410990923 106.899202,0.537617247 110.574429,0.659818457 C114.943718,0.804826021 119.318793,0.884478064 123.677871,1.18674735 C127.651623,1.46246596 131.615843,1.93220877 135.564747,2.46220121 C136.613498,2.60312405 137.586343,3.291059 138.603098,3.70599849 C138.913877,3.8329652 139.255632,3.96912254 139.580707,3.96333585 C141.221744,3.93440242 142.12719,4.93379728 142.72424,6.2572466 C143.469701,7.9088351 143.5725,9.67479576 143.489444,11.4730938 C143.419663,12.9830787 143.473105,14.4985098 143.476169,16.0118986 C143.483317,19.3089486 143.488082,22.6059985 143.502719,25.9030484 C143.518377,29.4094402 143.567054,32.9154917 143.560246,36.4218835 C143.550715,41.2350454 143.480934,46.0478669 143.479913,50.8610287 C143.479573,53.3067549 143.671554,55.7552042 143.59803,58.1968457 C143.524505,60.6347428 143.214747,63.0644705 143.0357,65.4993041 C142.946176,66.7128064 142.94107,67.9320953 142.855972,69.145938 C142.640843,72.2186687 142.467924,75.2965053 142.143188,78.358003 C141.993415,79.7696142 141.577795,81.1614826 141.193491,82.5370121 C140.72511,84.2141301 140.325828,85.9409455 139.597046,87.5067549 C138.767167,89.2897352 137.792621,91.0750983 136.534527,92.5680635 C135.402719,93.9115961 133.869928,94.9589864 132.113498,95.5294856 C129.237515,96.463525 126.402039,97.5497201 123.480783,98.3053933 C121.290011,98.8721483 118.990314,99.0147731 116.740654,99.356528 C115.116978,99.6029728 113.498748,99.8885628 111.872349,100.115265 C110.416827,100.31848 108.954497,100.475741 107.492848,100.632322 C106.04073,100.787542 104.587931,100.947186 103.131388,101.051006 C99.9698147,101.276687 96.8388767,101.914244 93.6262443,101.28792 C91.9542322,100.962163 90.1889523,101.122148 88.4675832,101.035008 C87.9706089,101.009818 87.473975,100.911104 86.9851702,100.807284 C86.2363048,100.64798 85.5296483,100.591135 84.8696256,101.116362 C83.4549508,102.242723 81.98309,103.299644 80.6000719,104.463109 C78.4429992,106.277746 76.3958737,108.225817 74.2003366,109.991437 C71.7124017,111.991929 69.0777572,113.816437 66.2099433,115.233835 C65.2091868,115.728427 64.0232564,115.88739 62.9009796,116.06916 C62.6201551,116.114773 62.2576362,115.656604 61.8484834,115.370673" id="Fill-1" fill="#52616F" mask="url(#mask-2)"></path>
                </g>
                <path d="M142.138525,218.793472 C143.649871,216.432844 145.13705,214.088215 146.650439,211.760946 C147.108268,211.056672 147.541929,210.287042 148.163147,209.752625 C148.808192,209.197784 149.674834,208.904365 150.429826,208.471384 C150.902632,208.200091 151.43739,207.959773 151.784251,207.564917 C152.232549,207.054327 152.557625,207.190144 153.002859,207.492413 C153.454561,207.799107 153.916135,208.190219 154.424342,208.293699 C155.794425,208.572821 157.201952,208.936702 158.5768,208.87407 C162.000136,208.718169 165.416664,208.376074 168.829107,208.042489 C170.375855,207.891014 171.899796,207.501604 173.446543,207.361021 C176.537655,207.079856 179.638638,206.911362 182.732133,206.653003 C183.141286,206.618964 183.639962,206.435832 183.908873,206.146498 C185.502595,204.432617 186.935991,202.590749 187.985424,200.482012 C188.181831,200.086815 188.37143,199.660643 188.43202,199.230386 C188.659402,197.610794 188.889508,195.987799 189.010688,194.358336 C189.148548,192.503873 189.215605,190.641241 189.233646,188.781331 C189.267345,185.311702 189.231944,181.841392 189.248623,178.371422 C189.255772,176.92441 189.353805,175.477398 189.351082,174.030386 C189.348699,172.958828 189.052897,171.8791 189.547829,170.832731 C189.613525,170.69385 189.516853,170.473616 189.483495,170.293548 C189.407247,169.885076 189.245219,169.475242 189.258495,169.070514 C189.290492,168.111626 189.414395,167.155802 189.483154,166.197254 C189.680242,163.45062 189.873926,160.703646 190.056377,157.955651 C190.13705,156.743169 190.147262,155.525242 190.259251,154.316165 C190.472678,152.017148 190.753843,149.724599 190.967269,147.425582 C191.023094,146.823427 190.949909,146.206634 190.908722,145.598351 C190.847791,144.696309 190.69972,143.795287 190.704826,142.894607 C190.710613,141.942186 190.875023,140.991808 190.917912,140.038026 C190.927784,139.819834 190.758608,139.428722 190.611558,139.397065 C190.013828,139.268737 189.393631,139.222103 188.779561,139.197935 C188.300968,139.179213 187.818971,139.230272 187.339357,139.264312 C186.833873,139.300053 186.32941,139.352133 185.824266,139.397065 C185.815756,139.324221 185.807587,139.251036 185.799077,139.178192 C185.981528,139.071989 186.164319,138.965446 186.34711,138.859244 C186.319879,138.802057 186.292307,138.744871 186.265076,138.687685 C185.803162,138.892602 185.341589,139.097179 184.861293,139.310265 C184.400061,138.446687 183.760121,139.266354 183.190303,139.066884 C183.20528,138.931067 183.223661,138.76121 183.241702,138.599523 C180.855204,138.417073 178.505809,138.237345 176.096505,138.053192 C176.34261,137.97388 176.530847,137.91329 176.718744,137.85236 C176.717723,137.758071 176.716702,137.663442 176.715681,137.569153 C174.390454,137.454781 172.066589,137.312496 169.74,137.233525 C167.010726,137.140938 164.277708,137.147746 161.549796,137.02997 C157.812958,136.868964 154.080545,136.59767 150.343366,136.437685 C147.73289,136.325696 145.117988,136.315144 142.505129,136.269871 C139.419463,136.21677 136.330393,136.247065 133.249153,136.102057 C131.289508,136.009811 129.350628,136.361097 127.381112,136.140522 C125.881339,135.972368 124.342421,136.100015 122.823926,136.169115 C120.47385,136.275658 118.125136,136.431558 115.777784,136.591203 C114.405318,136.68447 113.035575,136.820628 111.665151,136.946233 C109.559818,137.139576 107.45857,137.441165 105.349153,137.509924 C103.090983,137.583109 100.823283,137.488139 98.5644327,137.372405 C97.299531,137.307731 96.0240772,136.826755 94.7901513,136.938744 C93.1994932,137.083071 91.9431014,136.786589 90.7779349,135.680651 C90.4433283,135.363064 89.7244175,135.409017 89.1763843,135.375998 C88.9013464,135.35966 88.617118,135.609508 88.33323,135.618359 C87.3266868,135.650356 86.3320575,135.59351 85.4933283,136.361097 C85.0933661,136.72702 84.4255144,136.825053 84.0789939,137.22025 C83.0288805,138.417413 82.234062,139.72997 81.9753631,141.394493 C81.7129198,143.083185 80.997413,144.700053 80.7210136,146.387723 C80.199531,149.570401 79.8482451,152.780651 79.4380711,155.981369 C79.4203707,156.119909 79.5534644,156.272405 79.5623147,156.421498 C79.5943116,156.961021 79.6143949,157.501906 79.6147352,158.042451 C79.6147352,158.211967 79.4990015,158.382163 79.5030862,158.550658 C79.5527837,160.651566 79.630053,162.751793 79.6674962,164.853041 C79.6855371,165.871838 79.6535401,166.893018 79.6096293,167.911815 C79.5725265,168.771989 79.4707489,169.6291 79.4258169,170.489274 C79.4036914,170.917148 79.4329652,171.349107 79.4625794,171.777322 C79.4772163,171.984281 79.5626551,172.185454 79.5888654,172.392753 C79.749531,173.666846 79.5030862,174.932769 79.645711,176.237837 C79.8203328,177.834622 79.3897352,179.498124 79.2168154,181.132352 C79.1892436,181.393775 79.1089107,181.652814 79.1055068,181.913215 C79.0901891,183.138631 79.0377685,184.367451 79.1024433,185.589463 C79.2100076,187.623994 79.3590998,189.658525 79.5619743,191.685908 C79.7257035,193.321498 80.0398865,194.94211 80.1920424,196.578381 C80.2451437,197.14888 80.2533132,197.549183 80.9327383,197.415408 C80.9620121,197.504251 80.9790318,197.530121 80.9776702,197.554629 C80.9198033,198.415825 80.2686309,199.326377 81.1910968,200.105877 C81.3105749,201.919834 81.4487746,203.732428 81.5410212,205.547746 C81.5767625,206.247595 82.0271029,207.28239 82.4692738,207.338215 C83.6528215,207.487648 84.8390923,207.668396 86.0284266,207.705159 C90.1294856,207.832126 94.2319062,207.902247 98.3339864,207.997557 C98.4650378,208.00028 98.5947277,208.050318 98.7264599,208.06053 C101.183759,208.247746 103.639357,208.474448 106.100061,208.602095 C107.601195,208.679705 109.110159,208.59733 110.615719,208.598691 C112.306793,208.600053 113.998548,208.596989 115.689281,208.63239 C116.41534,208.647368 117.138676,208.791694 117.865076,208.808374 C118.64764,208.825734 119.433268,208.780121 120.215492,208.730083 C121.565151,208.643283 122.894387,208.696044 124.232474,208.955083 C125.187958,209.139917 126.209138,209.303646 127.151687,209.158298 C128.483646,208.953381 129.785651,208.958828 131.118971,208.996952 C132.328729,209.031331 133.639584,209.071498 134.733608,208.655877 C135.935197,208.19941 136.943101,208.463896 138.070144,208.624221 C137.934327,209.303986 137.862504,209.906823 137.679032,210.473238 C137.591551,210.74385 137.336256,211.050885 137.079939,211.158449 C136.378729,211.45289 136.204788,211.73882 136.56969,212.381483 C137.959175,214.828911 139.697564,216.979856 142.138525,218.793472 M195.224569,166.463442 C195.387958,166.354856 195.551687,166.246271 195.856339,166.044077 C195.788941,166.756861 195.696694,167.330764 195.687163,167.906029 C195.659592,169.584849 195.691589,171.26469 195.639168,172.942148 C195.625212,173.381256 195.418593,173.82615 195.24295,174.244153 C195.119387,174.538593 194.838903,174.785038 195.333835,175.004592 C195.453313,175.057693 195.607852,175.267035 195.585386,175.369153 C195.335197,176.512534 195.517988,177.695741 195.011823,178.84559 C194.6973,179.560076 194.953616,180.525772 194.953616,181.455045 C195.152405,181.392753 195.356301,181.3291 195.595938,181.253873 C195.628956,181.345779 195.700098,181.444153 195.69261,181.536059 C195.584024,182.904781 195.461483,184.272481 195.349834,185.641203 C195.311029,186.117753 194.864433,186.682806 195.621808,187.002095 C195.565983,188.055953 195.885613,189.390295 195.360045,190.092526 C194.693555,190.982995 195.048245,191.84385 194.800439,192.688366 C194.910386,192.487534 195.019992,192.286702 195.129939,192.08621 C195.195976,192.113101 195.262012,192.140333 195.328048,192.167224 C195.230015,192.522935 195.517648,192.998124 194.81031,193.180575 C194.726233,193.20236 194.713638,193.659168 194.741551,193.905613 C194.763676,194.098956 194.961445,194.274599 194.975401,194.46556 C195.053351,195.557542 194.085613,196.566127 194.670749,197.769758 C194.541059,197.683638 194.411369,197.597859 194.220408,197.471914 C194.220408,197.597519 194.245257,197.692489 194.216664,197.767035 C193.829977,198.774939 193.437504,199.781142 193.041626,200.785983 C193.003843,200.881974 192.890832,200.965371 192.88879,201.056596 C192.856793,202.388555 191.967345,203.261664 191.219841,204.212723 C190.23202,205.469796 189.290492,206.766354 188.247186,207.975772 C187.78357,208.513253 187.118101,208.876112 186.548283,209.323389 C186.057436,209.708714 185.581906,210.114803 185.077784,210.481747 C184.928351,210.590333 184.682247,210.679175 184.517156,210.636626 C181.898169,209.95652 179.33705,210.543699 176.759251,210.932769 C174.219576,211.316051 171.668328,211.619002 169.123888,211.971989 C167.493744,212.198011 165.872451,212.503684 164.237201,212.678986 C161.827216,212.937345 159.409402,213.13205 156.991929,213.315862 C154.728994,213.487761 152.511672,213.256293 150.444803,212.369909 C149.326611,214.031029 148.324153,215.712572 147.129713,217.245023 C145.716059,219.058638 144.136974,220.743585 142.629032,222.483676 C142.559592,222.564009 142.467345,222.628684 142.41152,222.716846 C141.898207,223.529365 141.642231,223.592337 140.874985,223.106256 C140.258873,223.693775 139.644123,224.279592 139.029372,224.865749 C139.28705,223.380272 138.093971,222.932655 137.35702,222.291354 C135.34053,220.535946 133.107209,219.021195 131.812012,216.55028 C131.34261,215.654705 130.639697,214.879629 130.022905,214.065068 C129.929637,213.941846 129.723018,213.834962 129.570182,213.836324 C127.983608,213.85028 126.397375,213.895893 124.810802,213.916997 C123.175552,213.938442 121.539622,213.930272 119.904372,213.956142 C118.04174,213.985416 116.179788,214.056558 114.317156,214.075961 C112.086558,214.098767 109.85562,214.0923 107.624682,214.086172 C105.704523,214.080726 103.784365,214.06643 101.864546,214.04056 C100.563903,214.022519 99.2636006,213.958525 97.963298,213.950015 C96.798472,213.942867 95.6329652,214.015711 94.46882,213.995628 C92.2991528,213.957844 90.1308472,213.849939 87.9615204,213.829856 C87.1040696,213.822027 86.2411725,214.068132 85.3881467,214.030688 C82.8239637,213.918699 80.2543343,213.709357 77.9406808,212.460454 C77.2350454,212.079213 76.6056581,211.488971 76.0709002,210.880348 C75.5793722,210.320741 75.3285023,209.652549 75.7917776,208.838328 C75.9936309,208.483979 75.9895461,207.797065 75.7716944,207.459735 C75.1351589,206.473275 75.4398109,205.382995 75.2839107,204.358071 C75.0776324,203.000923 75.1923449,201.598502 75.073888,200.223994 C74.8822466,198.00531 74.6330787,195.790711 74.3716566,193.578835 C73.8910212,189.512156 73.3868986,185.452965 73.4580408,181.339992 C73.5271407,177.3659 73.4570197,173.389766 73.4859531,169.414992 C73.5148865,165.461324 73.4869743,161.50323 73.6782753,157.556369 C73.8331543,154.35497 74.3311498,151.171952 74.5748714,147.973275 C74.7947655,145.088782 75.7475265,142.444266 76.958646,139.869531 C77.5168911,138.68292 78.0676475,137.476906 78.7800908,136.382542 C79.8312254,134.766694 81.4273298,133.687988 83.0608775,132.753268 C84.2866339,132.052057 85.6727156,131.633714 86.9760817,131.063215 C87.2565658,130.940333 87.5584947,130.754818 87.730053,130.512799 C88.4918533,129.437496 89.4061498,129.084508 90.7697655,129.310189 C92.3600832,129.573654 94.007587,129.575356 95.6281997,129.554932 C102.212769,129.472557 108.796657,129.301339 115.381225,129.240749 C118.096203,129.21556 120.813222,129.370439 123.5282,129.473578 C126.317723,129.579781 129.105885,129.718661 131.894387,129.851074 C134.777519,129.987912 137.659629,130.148578 140.543442,130.272481 C143.850023,130.415106 147.158986,130.501225 150.464546,130.663593 C153.707474,130.822897 156.945976,131.071725 160.188563,131.237156 C164.282814,131.445817 168.380809,131.580953 172.474039,131.80289 C175.1577,131.948578 177.834213,132.230424 180.517874,132.380537 C182.696392,132.502398 184.880696,132.51295 187.062277,132.583752 C188.391172,132.626641 189.718707,132.707655 191.047943,132.730802 C191.336256,132.735567 191.622867,132.542905 191.918669,132.482655 C192.162731,132.432958 192.456831,132.355008 192.66447,132.442148 C195.529561,133.648162 197.300287,135.746346 197.723396,138.866051 C197.828238,139.639085 197.643064,140.45671 197.782625,141.21885 C198.132549,143.129478 197.183873,144.968623 197.549796,146.872443 C197.598132,147.123994 197.418064,147.418775 197.346581,147.694153 C197.313903,147.819758 197.219274,148.01208 197.268631,148.06348 C197.875552,148.700015 197.247867,149.282769 197.213828,149.887307 C197.168215,150.695401 197.167534,151.506218 197.110688,152.31295 C197.029675,153.462799 196.912579,154.609924 196.815908,155.758752 C196.772337,156.274448 196.753616,156.792867 196.698472,157.307542 C196.663752,157.629894 196.556868,157.945779 196.530318,158.268472 C196.505469,158.571762 196.574909,158.883222 196.548018,159.186172 C196.48028,159.947973 196.426157,160.714879 196.284554,161.464425 C196.086445,162.514879 195.820938,163.553079 195.567685,164.5923 C195.514244,164.811172 195.367534,165.005877 195.301157,165.223389 C195.184062,165.607012 195.095219,165.999826 194.994463,166.388555 C195.071051,166.413744 195.14798,166.438253 195.224569,166.463442" id="Fill-4" fill="#52616F"></path>
                <path d="M230.822428,116.671963 C231.17031,116.73902 231.52466,116.852371 231.881732,116.862583 C232.20034,116.871093 232.527458,116.698514 232.841641,116.722682 C233.924433,116.807099 235.003139,117.038907 236.083548,117.039247 C238.60348,117.039588 241.124092,116.956532 243.643343,116.871093 C245.20643,116.818332 246.772239,116.746849 248.328517,116.598438 C250.201362,116.420072 252.062973,116.129376 253.933434,115.926161 C257.33975,115.555813 260.781127,115.394126 264.144894,114.793672 C266.162405,114.433536 268.102648,113.497795 269.991831,112.634217 C270.734228,112.294505 271.433396,111.544278 271.818041,110.806986 C272.571331,109.363037 273.402572,107.940874 273.69531,106.272266 C274.052723,104.232969 274.66407,102.238264 274.587481,100.133612 C274.557526,99.3084985 274.548336,98.4769175 274.614372,97.655208 C274.897579,94.1290734 275.308434,90.6107678 275.490885,87.080208 C275.710779,82.8212065 275.82379,78.5533548 275.838086,74.2885666 C275.84966,70.8795272 275.6427,67.4694667 275.535136,64.0597466 C275.4691,61.9602005 275.535817,59.8470386 275.314902,57.7638313 C274.950681,54.3313048 274.436346,50.9134153 273.920991,47.4989297 C273.425719,44.2178782 272.939637,40.9303593 272.27621,37.6813048 C271.822126,35.4578555 271.218268,33.2282791 269.332148,31.6556619 C268.846407,31.2505938 268.408661,30.7747239 268.007678,30.2831959 C266.95382,28.992084 265.829501,27.8674244 264.165998,27.3030522 C262.275113,26.6614107 260.454349,25.8233623 258.381694,26.2706392 C258.279236,26.2927648 258.168949,26.2788086 258.062065,26.2784682 C254.289145,26.2631505 250.516225,26.2369402 246.743306,26.2362595 C244.486838,26.2355787 242.230711,26.2873185 239.974244,26.2924244 C237.710968,26.2978707 235.447352,26.301615 233.184758,26.2590658 C229.516339,26.1906467 225.847239,25.9799433 222.180522,26.0224924 C218.577458,26.0643608 214.976437,26.3251021 211.376778,26.5300189 C207.734909,26.7373185 204.095424,26.9885287 200.455598,27.2298676 C197.240582,27.4429539 194.024546,27.6471899 190.811914,27.8960174 C188.666074,28.0621293 186.523298,28.273854 184.384266,28.5121293 C182.271104,28.7480219 180.171558,29.1697693 178.054312,29.2820991 C174.85121,29.4519554 171.637897,29.429149 168.428669,29.472379 C168.036536,29.4774849 167.590961,29.2402307 167.259418,29.36073 C165.771899,29.9022958 164.546142,30.8925 164.157753,32.4293759 C163.548449,34.83868 163.12534,37.3014259 162.741717,39.760087 C162.265166,42.8161384 161.917625,45.8919327 161.499281,48.9575151 C160.769138,54.3071369 160.141452,59.6645877 160.079501,65.0737784 C160.056014,67.1164788 159.941641,69.1591793 159.972277,71.2008585 C160.034909,75.4319478 160.168684,79.6623563 160.269781,83.8931051 C160.334115,86.580851 160.388918,89.2685968 160.453593,91.9563427 C160.479123,93.0166679 160.590091,94.0800567 160.539032,95.1359569 C160.446445,97.0469251 160.201021,98.9507451 160.13056,100.861713 C160.037632,103.376539 160.412065,105.7998 161.33385,108.194807 C162.081354,110.137772 163.362595,111.431948 165.005673,112.529376 C166.992209,113.856229 169.250719,114.197644 171.54531,114.27253 C173.590393,114.338907 175.642625,114.157477 177.690772,114.181645 C182.939977,114.243597 188.195651,114.227258 193.436006,114.494807 C197.594592,114.707213 201.733434,115.298816 205.882489,115.710352 C208.260817,115.946585 210.637784,116.223665 213.022579,116.346547 C213.781657,116.385692 214.664637,116.508915 215.374017,115.861827 C215.497239,115.749157 216.013275,116.057213 216.342436,116.18486 C216.459871,116.230473 216.561989,116.316252 216.670915,116.38365 C216.70121,116.352334 216.731165,116.321017 216.76146,116.289361 C216.57118,115.930246 216.381241,115.571131 216.100076,115.040117 C217.35034,115.472757 218.15503,116.132439 218.630219,117.075669 C220.208964,120.207969 222.792209,122.355851 225.581051,124.308007 C226.238691,124.768219 226.971899,125.121547 227.746974,125.568143 C227.951551,124.393446 228.055371,123.357288 228.324281,122.366063 C228.638124,121.210087 228.198336,119.929868 228.941755,118.859331 C229.17152,118.528128 229.401286,118.196925 229.637179,117.856872 C230.771029,118.082553 230.771029,118.082553 230.822428,116.671963 M230.455484,131.036562 C230.414637,131.039966 230.091944,130.981418 230.024206,131.08694 C229.330144,132.166668 228.468268,131.464096 227.861006,131.155019 C226.019478,130.218937 224.244667,129.145677 222.479047,128.068332 C219.644251,126.338453 217.309493,124.059179 215.510174,121.279527 C214.964864,120.437054 214.334115,120.427182 213.50764,120.427863 C211.28351,120.429905 209.054955,120.422417 206.837292,120.280132 C204.935514,120.158272 203.046331,119.84511 201.151362,119.616365 C199.043646,119.362092 196.941036,119.054036 194.827534,118.869202 C192.733094,118.68573 190.628782,118.563529 188.526853,118.528128 C185.826513,118.482856 183.12379,118.527107 180.422769,118.576464 C177.104955,118.637394 173.783056,118.894731 170.472731,118.783082 C167.705673,118.689474 164.914107,118.416819 162.315885,117.23157 C160.250038,116.28902 158.704652,114.831116 157.66475,112.82688 C157.507148,112.522908 157.356694,112.202258 157.280787,111.871736 C156.996899,110.634066 156.62553,109.40014 156.511157,108.144429 C156.362065,106.511562 156.027799,104.740155 156.476097,103.237999 C157.731808,99.0310779 157.30121,94.7690129 157.334228,90.5260098 C157.353971,88.002674 156.998941,85.4776362 156.85938,82.9508964 C156.72118,80.4496861 156.572769,77.9457526 156.553026,75.4421596 C156.514902,70.7069478 156.473714,65.9679917 156.609531,61.2358434 C156.716415,57.5153442 157.02413,53.7968873 157.359418,50.0879614 C157.658623,46.7803593 158.014334,43.4707148 158.537859,40.1923865 C158.963351,37.5288086 159.675794,34.9111838 160.257526,32.2724546 C160.315053,32.0127345 160.359304,31.74927 160.393003,31.4854652 C160.540734,30.3359569 161.032262,29.3137557 161.585741,28.3201475 C161.829123,27.8830825 162.14671,27.6713578 162.739334,27.579792 C163.303026,27.4929917 163.790469,26.8523714 164.290507,26.4309644 C164.63056,26.1440129 164.935893,25.8158737 165.255182,25.5047542 C165.402572,25.3611082 165.647315,25.2303971 165.675227,25.064966 C165.8427,24.0638691 166.556505,23.9913654 167.348941,24.0063427 C170.460477,24.0642095 173.572352,24.1646256 176.683888,24.1557753 C178.356241,24.1513502 180.063313,24.1363729 181.692776,23.8133396 C185.501778,23.0580068 189.366944,22.9701853 193.208964,22.6243457 C195.134909,22.4510855 197.079236,22.4966982 199.011649,22.3789221 C201.691225,22.2151929 204.365356,21.9585363 207.045613,21.8009342 C209.727572,21.6433321 212.413275,21.4925378 215.098979,21.4581581 C219.187443,21.4057375 223.27761,21.4377345 227.366415,21.4697315 C230.293457,21.4925378 233.220159,21.6123563 236.147201,21.6212065 C241.972693,21.638907 247.798525,21.5960174 253.624017,21.6072504 C255.88559,21.6116755 258.150908,21.7975303 260.407375,21.7127723 C262.879312,21.6198449 265.23143,22.0494213 267.502874,22.9300189 C269.918306,23.8667814 272.2677,24.9220008 273.701437,27.3027118 C274.120802,27.999497 274.680408,28.6561157 275.305371,29.1752156 C276.813313,30.4282035 277.357602,32.2016528 278.122806,33.8838767 C278.734153,35.22809 278.780787,36.627447 278.918986,38.0424622 C279.052421,39.4108434 279.325416,40.7649281 279.503782,42.1299054 C279.64879,43.2385666 279.77882,44.350972 279.855408,45.4657602 C280.151891,49.7693533 280.461309,54.0726059 280.690053,58.3799433 C280.809531,60.6275605 280.803064,62.884028 280.795234,65.1360703 C280.786384,67.6369402 280.732602,70.1381505 280.659418,72.6379992 C280.573298,75.5858056 280.489902,78.5346331 280.320726,81.4783548 C280.197504,83.6197693 279.945953,85.7543759 279.734228,87.8900038 C279.584455,89.3982867 279.380219,90.9014637 279.246445,92.4107678 C279.061271,94.4953366 278.919667,96.5836498 278.759002,98.6706014 C278.649054,100.099232 278.700794,101.564626 278.387973,102.947303 C277.981543,104.741176 277.471634,106.560919 276.664902,108.201955 C275.678442,110.208574 274.418306,112.097757 273.130598,113.93486 C271.667927,116.021471 269.617738,117.376918 267.127421,117.979073 C265.247428,118.433498 263.359607,118.879754 261.453064,119.193597 C259.437935,119.52514 257.395915,119.690911 255.36649,119.936675 C251.969024,120.348211 248.577345,120.81455 245.173411,121.16107 C243.349584,121.346925 241.505673,121.345223 239.669932,121.401728 C237.720159,121.461638 235.769024,121.490571 233.81857,121.53312 C233.765469,121.534482 233.712027,121.534141 233.658585,121.535163 C232.177874,121.558309 232.172769,121.557629 231.898411,123.053317 C231.669327,124.301539 231.444667,125.550783 231.240431,126.80309 C231.20469,127.022644 231.191755,127.338529 231.316339,127.476048 C231.971596,128.198362 231.546445,128.796433 231.18767,129.440117 C230.931014,129.900669 230.743797,130.400026 230.455484,131.036562" id="Fill-6" fill="#52616F"></path>
                <path d="M105.169561,59.2917549 C105.239682,59.3560893 105.310144,59.420764 105.380265,59.4854387 C105.788056,59.0190998 106.195507,58.552761 106.690098,57.9866868 C105.649175,58.0054085 105.52323,58.7655068 105.169561,59.2917549 L105.169561,59.2917549 Z M106.147852,45.7886914 C106.052542,45.7185703 105.956891,45.6487897 105.861581,45.5786687 C105.404092,46.1746974 104.946263,46.7703858 104.488434,47.3660741 C104.54528,47.4120272 104.601785,47.4576399 104.658631,47.503593 C105.290061,47.0464448 105.909236,46.5787443 106.147852,45.7886914 L106.147852,45.7886914 Z M99.0149092,54.5609682 C97.8858245,55.0746218 94.86177,58.7832073 94.6170272,59.7264372 C95.0758775,59.7264372 95.5197504,59.7567322 95.9557943,59.7111195 C96.1222466,59.6937595 96.3785628,59.5262859 96.4095386,59.3863843 C96.7557186,57.825 97.6121483,56.5600983 98.6285628,55.3711044 C98.8164599,55.1515507 98.8889637,54.8332829 99.0149092,54.5609682 L99.0149092,54.5609682 Z M42.3635855,33.1454614 C40.1336687,33.8868381 35.3793949,41.4354009 35.9093873,43.4798033 C38.0875643,39.9921331 40.1779198,36.6450454 42.3635855,33.1454614 L42.3635855,33.1454614 Z M101.872852,59.8513616 C101.991309,59.4752269 102.032156,59.1133888 102.206437,58.8356278 C102.733026,57.9968986 103.297057,57.1809758 103.872322,56.374584 C105.027277,54.7556732 106.601256,53.5796142 108.144939,52.3725794 C108.299818,52.2517398 108.506778,52.1009455 108.538094,51.9355144 C108.696377,51.0950832 108.624894,50.2723525 108.21438,49.3454614 C104.875802,52.5594554 102.37323,56.2935703 99.282118,59.8513616 L101.872852,59.8513616 Z M88.400764,59.6297655 C89.4934266,59.6297655 90.3791301,59.6403177 91.2641528,59.6158094 C91.3696747,59.6127458 91.4956203,59.4323374 91.5684644,59.3080938 C92.7152496,57.3566188 93.7146445,55.3009834 95.0265204,53.4683056 C97.4569289,50.0722012 100.076936,46.8122542 102.58938,43.4740166 C102.778638,43.222466 102.913434,42.6529879 102.771831,42.4824508 C102.367784,41.9967095 101.784009,42.1114221 101.433064,42.6203101 C99.730416,45.0874811 98.0587443,47.5764372 96.3142284,50.0133132 C95.1555295,51.6315431 93.9307943,53.2065431 92.664531,54.7417171 C91.5511044,56.0917171 90.3365809,57.3583207 89.1724357,58.6664523 C88.9491377,58.9173222 88.7510287,59.1906581 88.400764,59.6297655 L88.400764,59.6297655 Z M83.2907791,30.3389183 C83.146112,30.6044251 82.9983812,30.8501891 82.8741377,31.1075265 C81.7232678,33.4953858 80.6983434,35.9533661 79.400764,38.2585098 C77.2967927,41.9970499 75.0042436,45.6290469 72.8121104,49.31823 C71.4076475,51.6822617 70.0484569,54.0728442 68.6484191,56.4392587 C68.4237595,56.8191377 68.0908548,57.1350227 67.8052648,57.4784796 C67.2259153,58.1759455 66.6448638,58.8720499 66.0644932,59.5684947 C66.1182753,59.636233 66.1720575,59.7036309 66.2258396,59.7710287 C66.8273147,59.7611573 67.5349924,60.1376324 67.9601437,59.3802572 C69.0211498,57.4886914 69.9946747,55.5474281 71.0822315,53.6718608 C72.9867322,50.3867247 74.9106354,47.1114599 76.9029576,43.8790847 C78.2675946,41.664826 79.750348,39.5220499 81.2034871,37.3632753 C81.9720953,36.2205749 82.7818911,35.1054463 83.5889637,33.9892965 C84.484879,32.7502648 84.3973979,31.3304841 83.2907791,30.3389183 L83.2907791,30.3389183 Z M70.9150983,59.740053 C71.8913464,59.740053 72.6589334,59.7077156 73.4224357,59.7506051 C73.9898714,59.7822617 74.236997,59.4554841 74.4286384,59.0262481 C74.9113162,57.9451589 75.3238729,56.8279879 75.8722466,55.7819592 C76.9175946,53.7889561 77.9786006,51.799357 79.1424054,49.8744327 C80.720469,47.2639561 82.4030333,44.7164523 84.0376021,42.1400151 C84.5352572,41.3557489 85.0478896,40.5786309 85.4968684,39.7667927 C85.6030711,39.5744705 85.4798487,39.2548411 85.4624887,38.9940998 C85.2269365,39.087708 84.8926702,39.1118759 84.7708094,39.2854766 C83.3013313,41.3788956 81.8716793,43.5005673 80.4147958,45.603177 C78.5143797,48.3457262 76.5983056,51.0773828 74.6900605,53.8141452 C73.9323449,54.9006808 73.1494402,55.9712179 72.4298487,57.0822617 C71.9168759,57.874357 71.4900227,58.7226172 70.9150983,59.740053 L70.9150983,59.740053 Z M76.3413086,59.6934191 C77.8853328,59.6934191 79.1992511,59.7060136 80.5121483,59.6736762 C80.6408169,59.6706127 80.8065885,59.4088502 80.8794327,59.2352496 C81.0748185,58.7712935 81.2096142,58.2818079 81.4060212,57.8185325 C81.5483056,57.4825643 81.7685401,57.180295 81.9234191,56.8484115 C82.5820802,55.4368003 83.1593873,53.9816188 83.9028064,52.6169818 C84.5087065,51.5055976 85.3042057,50.4966717 86.0244781,49.4482602 C86.90882,48.161233 87.7900983,46.871823 88.6972466,45.6004539 C89.1993268,44.8968608 89.7514448,44.2290091 90.2623752,43.5693268 C89.8794327,43.0236762 89.5546974,42.5604009 89.1802648,42.0270045 C88.9549244,42.2928517 88.7687292,42.4776853 88.6223601,42.6897504 C87.8095008,43.8668306 87.028298,45.0667171 86.1946747,46.2291604 C84.1649092,49.0608926 82.4561346,52.1189864 80.0798487,54.7093797 C78.9943343,55.8922466 78.0752723,57.2282905 77.0949395,58.5057867 C76.8501967,58.8243949 76.6605976,59.1855522 76.3413086,59.6934191 L76.3413086,59.6934191 Z M81.9234191,59.5497731 C81.9768608,59.625 82.0303026,59.6998865 82.0837443,59.7747731 C83.4528064,59.7747731 84.8222088,59.7921331 86.1902496,59.7560514 C86.3921029,59.7506051 86.6589713,59.534115 86.7702799,59.3424735 C87.0003858,58.9448941 87.100121,58.4710666 87.3349924,58.0772315 C88.1083661,56.7799924 88.9297352,55.5113464 89.710938,54.2185325 C90.6061725,52.7368003 91.450348,51.2234115 92.3680484,49.7556354 C93.3807186,48.1360439 94.4400227,46.544705 95.5034115,44.9574508 C95.9009909,44.3638048 96.3676702,43.816112 96.8030333,43.2476551 C95.4074206,43.833472 94.0557186,44.3062784 93.218351,45.7100605 C92.2312103,47.365053 91.0047731,48.8842284 89.8123752,50.4074887 C88.5791301,51.982829 87.2570424,53.4880484 85.9849924,55.0327534 C85.6486838,55.440885 85.4332148,56.1220121 85.0220197,56.2598714 C84.0794705,56.5764372 83.7560968,57.4059758 83.1832148,58.0237897 C82.7355976,58.5068079 82.3414221,59.0391831 81.9234191,59.5497731 L81.9234191,59.5497731 Z M47.8299622,31.1299924 C47.7349924,31.05 47.6403631,30.9700076 47.5457337,30.8900151 C47.1992133,30.9999622 46.8595008,31.1667549 46.5048109,31.2099849 C45.1548109,31.3750756 44.2340469,31.7627837 43.8956959,33.3912254 C43.552239,35.0428139 42.551823,36.5459909 41.9915356,38.166944 C40.6582148,42.0236006 38.0909682,45.1313918 35.8685401,48.4444402 C35.0298109,49.694705 34.8133207,51.2438351 35.720469,52.9195915 C39.8055295,45.5687973 43.8177458,38.3493949 47.8299622,31.1299924 L47.8299622,31.1299924 Z M40.6122617,58.3025719 C40.7419516,57.6714826 40.7712254,57.1506808 40.9557186,56.6928517 C42.224705,53.542171 43.3490242,50.3162632 44.8576475,47.2826778 C47.2924811,42.3854387 49.9754614,37.6107413 52.5815129,32.7992814 C53.1332905,31.7808245 53.0951664,31.5656959 51.9671029,31.2116868 C51.763888,31.1480333 51.5511422,31.1065053 51.3584796,31.0200454 C50.8778442,30.8045764 50.5109002,30.9448185 50.2930484,31.3907337 C50.0394554,31.9091528 49.8508775,32.4592284 49.6149849,32.9868381 C48.4549244,35.578593 47.3687292,38.2074508 46.1014448,40.7454236 C44.9059834,43.13941 43.6591225,45.531354 42.1773903,47.7524206 C40.4914221,50.2798411 38.9759909,52.876702 37.7570424,55.6512481 C37.675348,55.8374433 37.6991755,56.2265129 37.825121,56.3228442 C38.6832526,56.9787821 39.5818911,57.5816188 40.6122617,58.3025719 L40.6122617,58.3025719 Z M61.8739107,59.7621785 C63.1827231,60.229879 63.9846899,59.8854009 64.4595386,58.8437973 C64.9650227,57.7344554 65.4003858,56.5740545 66.0498563,55.552534 C67.9441452,52.5720499 69.631475,49.4914902 71.1772012,46.3139183 C72.4288275,43.740885 73.9674054,41.3077534 75.3684644,38.8065431 C77.3025794,35.3546142 79.2319289,31.8996218 81.1415356,28.4340772 C81.2351437,28.2642209 81.2109758,27.8833207 81.0860514,27.7655446 C80.6649849,27.3672844 80.1775416,27.0384644 79.7081392,26.6926248 C79.3360893,26.4189486 79.0566263,26.55 78.8871104,26.9370272 C78.6753858,27.421407 78.5113162,27.9272315 78.2886989,28.4061649 C76.6354085,31.9670197 74.9984569,35.5353631 73.3012557,39.0751135 C72.5442209,40.6538578 71.7119592,42.2019667 70.8208094,43.708888 C69.3220575,46.2434569 67.6874887,48.6990545 66.22618,51.2543873 C65.0011044,53.3964826 63.938056,55.6315053 62.8110136,57.8290847 C62.4920651,58.4509834 62.200348,59.0864977 61.8739107,59.7621785 L61.8739107,59.7621785 Z M59.3430862,59.9960287 C59.4612027,59.2801815 59.4867322,58.6439864 59.6845008,58.0666793 C59.8679728,57.5319213 60.2754236,57.0788578 60.5154009,56.558056 C62.2173676,52.867171 63.8175567,49.1269289 65.615174,45.4836989 C67.3984947,41.869062 69.3853707,38.3551815 71.2643419,34.7871785 C72.6599546,32.1368759 74.0283359,29.4715961 75.4014826,26.8093797 C75.5213011,26.5768911 75.5873374,26.3164902 75.6928593,26.029879 C75.4773903,26.0036687 75.3837821,25.9611195 75.3262557,25.990053 C74.2026172,26.5574887 73.0748941,27.1184569 71.9692965,27.7192511 C71.7303404,27.848941 71.5135098,28.0977685 71.3865431,28.3438729 C70.5222844,30.0186082 69.6675567,31.6991301 68.8417625,33.3936082 C66.84059,37.4997731 64.8564372,41.6144478 62.8658169,45.7257186 C61.7683888,47.9927383 60.6808321,50.2645234 59.570469,52.5250756 C58.9284871,53.8311649 58.2650605,55.1273828 57.5842738,56.4133888 C56.9599924,57.5925113 56.2989486,58.7525719 55.6123752,59.9960287 L59.3430862,59.9960287 Z M41.179357,59.1579803 C45.0792436,59.4868003 48.831059,59.8033661 52.6502723,60.1253782 C52.5852572,58.3461422 53.2248563,56.9723147 53.9032602,55.6240166 C54.9663086,53.5118759 56.0930106,51.4317322 57.1604841,49.3212935 C58.0802269,47.5029123 58.9686536,45.6678517 59.844826,43.8276853 C60.4725113,42.5100227 61.0862405,41.1831694 61.6373374,39.8324887 C61.7445613,39.5700454 61.6397201,39.0880484 61.4480787,38.8674735 C61.1321936,38.503593 60.6658548,38.2704236 60.2464902,37.9701967 C59.8329123,37.951475 59.3189183,37.9279879 58.6881694,37.8993949 C58.1639637,39.0247352 57.5886989,40.3686082 56.9235703,41.666528 C54.985711,45.4489788 53.0213011,49.2174735 51.0480408,52.9812027 C50.2481165,54.5075265 49.3879425,56.0021936 48.577466,57.5234115 C48.2520499,58.1340772 47.9133585,58.6208396 47.1352194,58.129652 C46.9650227,58.4560893 46.8264826,58.7219365 46.684879,58.9939107 C45.5714523,58.2501513 45.4131694,57.6119138 45.9115053,56.5570348 C46.6821558,54.9255295 47.407534,53.2725794 48.1393797,51.6230333 C49.2031089,49.2259834 50.1034493,46.7414523 51.3499697,44.4441377 C52.9695613,41.4592284 54.8713389,38.6278366 56.6127912,35.7072617 C56.7496293,35.4778366 56.7081014,34.93559 56.5310968,34.7623298 C55.9132829,34.1594932 55.1994781,33.6550303 54.4138502,33.0259834 C54.0669894,33.7411498 53.7201286,34.334115 53.484236,34.9682678 C53.0410439,36.1620272 52.7939183,37.4449697 52.2322693,38.5750756 C50.2716036,42.5198941 48.2408169,46.4306732 46.174289,50.3213691 C45.355643,51.8630106 44.361354,53.3103631 43.4712254,54.8149017 C42.8775794,55.8187216 42.3189939,56.843646 41.7607489,57.86823 C41.5738729,58.2113464 41.4370348,58.5816944 41.179357,59.1579803 L41.179357,59.1579803 Z M61.3074962,30.2854766 C61.5229652,29.893003 61.7615809,29.5144856 61.9470953,29.1114599 C62.7408926,27.3873676 63.9258018,25.9839259 65.3578366,24.7520424 C66.1737595,24.0498109 66.7796596,23.0146747 67.6932753,22.5357413 C69.1893041,21.7511346 70.6349546,20.7827156 72.4363162,20.6295386 C73.6739864,20.524357 74.821112,20.5117625 76.0301891,20.9185325 C76.6898714,21.140469 77.5357489,20.9209153 78.2699773,20.7677383 C78.7574206,20.6659607 79.073646,20.6918306 79.3660439,21.1057489 C79.4964145,21.2895613 79.7108623,21.5070726 79.9103328,21.5332829 C81.0115053,21.6786309 81.9271634,22.3631619 83.0021256,22.5609304 C84.4777307,22.8325643 85.2231921,23.7342663 85.5424811,25.1761725 C85.6377912,25.6077912 86.2106732,25.933888 86.5636611,26.3093419 C86.7250076,26.4805598 86.935711,26.6286309 87.0361271,26.8308245 C87.9708472,28.7159228 88.8340847,30.6391452 89.8365431,32.4871407 C90.18,33.1202723 90.3079879,34.116944 91.4952799,34.0410363 C91.7658926,34.0240166 92.0851815,34.7245461 92.3751967,35.1003404 C92.4214902,35.1602496 92.4296596,35.2490923 92.4589334,35.323298 C93.271112,37.399357 93.6098033,37.5702345 95.4717549,36.378177 C96.3275038,35.8304841 97.226823,35.918646 98.0434266,35.9744705 C99.9067398,36.1014372 101.74146,36.5844554 103.633366,36.5265885 C103.942103,36.5173979 104.288623,36.5820726 104.560938,36.7226551 C105.524251,37.2206505 106.55292,37.6536309 107.391309,38.3197806 C108.746074,39.3964448 110.080076,40.4663011 111.13087,41.942587 C112.572436,43.9682678 113.232799,46.1845688 113.697776,48.5360061 C113.776407,48.9332451 114.113737,49.2995083 114.12531,49.6861952 C114.149138,50.4888427 114.002428,51.2952345 113.986089,52.1012859 C113.970091,52.8892965 114.028298,53.6786687 114.059614,54.6378971 C113.070091,55.0936838 113.163018,56.3500756 112.880492,57.4274206 C112.854622,57.5261346 112.86211,57.6980333 112.811051,57.7164145 C111.783404,58.0867625 111.847398,59.1824887 111.742216,59.8632753 C111.503941,61.4008321 110.399365,61.8035174 109.381929,62.5806354 C108.28382,63.4190242 107.172436,63.0422088 106.083177,63.2699319 C104.845847,63.5286309 103.625197,63.6055598 102.38174,63.2835477 C101.980756,63.1793873 101.532118,63.2586989 101.105605,63.2546142 C98.4222844,63.2297655 95.7389637,63.1684947 93.0563238,63.1943646 C91.3574206,63.2107035 89.6595386,63.4295764 87.9613162,63.4295764 C85.3525416,63.4295764 82.743767,63.2975038 80.134652,63.2617625 C77.3492133,63.2236384 74.5634342,63.2382753 71.7779955,63.2185325 C69.4153253,63.2018533 67.0526551,63.1412632 64.6903253,63.151475 C62.6442209,63.1603253 60.5977761,63.2975038 58.5526929,63.2746974 C56.7748185,63.2549546 54.9877534,62.9206884 53.2245159,63.0336989 C50.9459228,63.1793873 48.7810212,62.824357 46.6150983,62.2385401 C46.2879803,62.1500378 45.9230787,62.1221256 45.5864297,62.16059 C43.5134342,62.3978442 41.5925946,61.7344175 39.6499697,61.1952345 C39.4722844,61.1462179 39.301407,61.0532905 39.1220197,61.0349092 C36.0863918,60.7200454 33.5555673,59.2481846 31.3678593,57.2905825 C29.4157035,55.5440242 28.2546218,53.2463691 27.8257262,50.5953858 C27.0931997,46.06441 27.9176324,41.7843041 29.5780711,37.5664902 C30.7248563,34.6537443 32.7035628,32.4384644 34.8521256,30.2647126 C36.5050756,28.5920197 38.5191831,27.7975416 40.6827231,27.2079803 C42.0351059,26.8393343 43.3868079,26.4284796 44.7660817,26.209947 C45.720885,26.0588124 46.7873374,25.9876702 47.6900605,26.2589637 C49.8423676,26.905711 52.064115,27.1068835 54.238888,27.5701589 C56.0208472,27.9496974 57.7571936,28.5715961 59.4823071,29.1761346 C60.1127156,29.3973903 60.6525794,29.8773449 61.3074962,30.2854766 L61.3074962,30.2854766 Z" id="Fill-8" fill="#52616F"></path>
                <path d="M46.736857,80.7373865 C46.2654123,79.915677 45.8259644,79.1504728 45.3742625,78.3634834 C44.8936271,79.9619705 45.3402231,80.7479387 46.736857,80.7373865 M43.5729009,78.9380673 C43.4643154,79.9486952 42.7440431,80.8609493 43.5718797,81.7820537 C43.8874244,82.1333396 44.0834909,82.7654501 44.6961989,82.5676815 C44.3312973,81.3888994 43.977969,80.2465393 43.5729009,78.9380673 M48.1675303,73.9918116 C46.749792,74.6950643 46.3733169,75.9191188 46.0210098,77.1070915 C45.6292171,78.4288389 46.0880673,79.5654123 47.0554652,79.8894667 C47.2808056,79.965034 47.712084,79.9194213 47.8210098,79.7669251 C48.458907,78.8750946 49.0294062,77.9345877 49.6223714,77.0104198 C49.5628026,76.9665091 49.5035741,76.9222579 49.4440053,76.8783472 C48.6355711,77.6476362 48.067795,78.8025908 46.4931354,78.4560703 C46.511857,76.9385968 47.4479387,75.5620461 48.1675303,73.9918116 M52.6229387,73.8852685 C52.8285363,73.381146 52.9388238,73.1101929 53.0491112,72.8395802 C53.0964259,72.8528555 53.1437405,72.8661309 53.1910552,72.8794062 C53.0589826,73.4621596 52.9960098,74.0721445 52.781562,74.6232413 C52.1406014,76.2707451 51.5020234,77.9243759 50.7473714,79.5215015 C49.7387859,81.6557678 48.0504349,83.0326589 45.7187405,83.5367814 C44.4126513,83.8193079 43.2069781,82.8083396 42.8853064,81.2486573 C42.3634834,78.7181732 43.098733,76.5750567 44.9126891,74.7978631 C47.303612,72.4559569 49.7299357,70.149792 52.1412821,67.8289902 C52.2563351,67.7180219 52.3642398,67.5927572 52.4973336,67.5093608 C52.7359493,67.3595877 52.9912443,67.2363654 53.2397315,67.10191 C53.3118949,67.3636725 53.3452534,67.6448374 53.4647315,67.8824319 C53.7156014,68.381789 53.552553,68.777326 53.3840582,69.2828101 C52.9551626,70.5705182 52.6940809,71.9150719 52.3867057,73.2415847 C52.3587935,73.3614032 52.4820159,73.5162821 52.6229387,73.8852685" id="Fill-10" fill="#52616F"></path>
                <path d="M76.0051021,70.5988729 C75.921025,70.5743646 75.8366074,70.5501967 75.7525303,70.5256884 C75.3777572,71.474705 74.9335439,72.4029576 74.6476135,73.3778442 C74.3524924,74.3820045 74.1843381,75.4276929 74.0240129,76.4648714 C73.9892927,76.6898714 74.1938691,77.1371483 74.3436422,77.1630182 C74.5846407,77.2048865 75.0237481,77.0537519 75.1163351,76.8593873 C76.0619478,74.8674054 76.5371369,72.7957716 76.0051021,70.5988729 L76.0051021,70.5988729 Z M79.3610401,69.3703933 C79.1244667,68.3063238 78.8882337,67.2422542 78.6520008,66.1781846 C78.7408434,66.1574206 78.8296861,66.1366566 78.9188691,66.1158926 C79.0403896,66.420885 79.1908434,66.717708 79.2790053,67.0318911 C80.0149357,69.6512179 80.0333169,72.2426324 79.1588464,74.859236 C78.8034758,75.9229652 78.6264713,77.0479652 77.7571067,77.8346142 C76.8744667,78.6335174 76.0040809,79.493351 74.9835817,80.0713389 C74.5005635,80.3446747 73.5988616,80.1962632 73.0321067,79.9300756 C72.1763578,79.5280711 71.8982564,78.634879 71.9482943,77.6974357 C72.1331278,74.2284871 72.9701551,70.9937292 75.3491641,68.3168759 C75.7535514,67.8621104 76.0980295,67.35118 76.5259039,66.921944 C77.15427,66.2908548 77.6825605,66.3885477 78.0981808,67.2102572 C78.4630825,67.9312103 78.7650113,68.68382 79.0945121,69.4224735 L79.3610401,69.3703933 Z" id="Fill-12" fill="#52616F"></path>
                <path d="M65.3975946,70.8496747 C62.5154841,72.9873449 61.5565961,74.6811422 62.9583359,76.8613616 C63.7671104,74.8676778 64.5381014,72.9679425 65.3975946,70.8496747 M59.2820877,76.9073147 C59.2388578,75.4024357 59.9608321,74.1804236 60.8390469,73.0921861 C62.083525,71.5505446 63.452587,70.1086384 64.7770575,68.6320121 C65.4932451,67.8334493 66.4534947,67.6527005 67.4525492,67.7262254 C67.6217247,67.7384796 67.9219516,68.2351135 67.8773601,68.4488805 C67.7599244,69.0142738 67.4396142,69.5343949 67.2874584,70.0963843 C67.1159002,70.7305371 67.0610968,71.3953253 66.9171104,72.0383283 C66.5089788,73.8611346 66.1529274,75.7006203 65.6297428,77.4910893 C65.3836384,78.3339032 64.9472542,79.2270953 64.3328442,79.826528 C63.7020953,80.4416188 62.7901815,80.8739183 61.9255825,81.1169592 C60.9037216,81.4039107 59.6047806,80.1332224 59.4117776,78.8145386 C59.3202118,78.1861725 59.3222542,77.5435098 59.2820877,76.9073147" id="Fill-14" fill="#52616F"></path>
                <path d="M153.259618,154.238419 C152.113173,152.700522 143.818128,151.449917 141.246116,152.558578 C145.341728,152.615764 149.437001,152.415272 153.259618,154.238419 M98.0661989,152.555514 C98.0107148,152.130703 97.9715696,151.830817 97.9324244,151.53093 C98.0188843,151.494508 98.1053442,151.458086 98.1918041,151.421664 C98.4416528,151.855325 98.7401778,152.268222 98.9328404,152.725711 C99.6289448,154.376278 100.58579,155.864138 102.053226,156.884297 C103.677583,158.013041 105.511623,158.692126 107.49986,159.004607 C110.494981,159.475371 113.398196,159.000182 116.259542,158.251316 C118.211017,157.740386 120.09135,156.962247 122.013211,156.332859 C123.920095,155.708238 125.810639,154.998177 127.75871,154.54205 C131.574179,153.647837 135.435601,152.952073 139.256517,152.079985 C141.476222,151.573139 143.703415,151.361074 145.962946,151.463873 C149.205874,151.611263 152.306176,152.330855 155.300957,153.635923 C156.851449,154.311604 158.329096,155.060809 159.554852,156.198404 C160.425919,157.007179 161.140405,157.988192 161.900843,158.91202 C162.973763,160.216407 164.214157,161.320643 165.724141,162.083464 C166.275579,162.362247 166.893393,162.509637 167.578945,162.751997 C166.541085,163.658464 165.628491,162.831989 164.643393,162.846967 C165.05697,163.110091 165.444679,163.436188 165.891275,163.618298 C166.31166,163.790197 166.793657,163.81028 167.35871,163.918185 C166.806252,164.690877 166.355231,165.321286 165.87868,165.987436 C165.949822,166.03475 166.061471,166.108956 166.313362,166.27643 C165.905571,166.394206 165.612833,166.556233 165.32486,166.548064 C164.453453,166.523555 163.574217,166.490877 162.718468,166.342126 C162.336887,166.275749 162.005004,165.924463 161.605722,165.729758 C161.228567,165.482973 160.850049,165.03093 160.473915,165.032632 C159.721986,165.036377 159.437757,164.445794 158.956441,164.120719 C158.781138,164.002262 158.726675,163.704758 158.568052,163.391596 C157.881138,163.330666 157.4502,162.588608 157.072023,162.018109 C155.538551,159.706498 153.241237,158.576732 150.824104,157.497345 C149.862152,157.067769 148.857992,156.803623 147.889913,156.424085 C147.167939,156.140877 146.327508,156.146324 145.535753,156.059523 C144.939043,155.994168 144.319527,156.062927 143.739157,155.937663 C142.109353,155.585015 140.386623,155.707557 138.903869,156.074841 C135.211282,156.989478 131.484996,157.675711 127.75803,158.395303 C126.963211,158.54882 126.214005,158.936528 125.443014,159.21497 C123.255647,160.004342 121.035601,160.714743 118.8884,161.601467 C116.017863,162.786717 113.028188,163.462738 109.969414,163.746626 C106.782992,164.042769 103.655798,163.646891 100.796834,162.045 C99.3886271,161.255968 98.3974017,160.018979 97.5967965,158.66149 C97.1161611,157.846929 96.9217965,156.863873 96.4445651,156.046589 C95.9064032,155.124803 96.6161233,154.427678 96.6835212,153.624009 C96.6940734,153.498404 96.8227421,153.377224 96.8189977,153.256044 C96.7917663,152.331536 97.2924849,152.247799 98.0661989,152.555514" id="Fill-16" fill="#52616F"></path>
                <path d="M103.542992,186.172387 C103.539588,186.250337 103.536184,186.328287 103.53278,186.406237 C104.58868,186.605026 105.64424,186.804157 106.70014,187.002946 C106.704225,186.978098 106.70865,186.952908 106.713075,186.927719 L103.542992,186.172387 Z M138.620526,178.051963 C138.620526,178.15306 138.620185,178.254837 138.619845,178.356275 C139.897001,178.422311 141.174157,178.488347 142.450972,178.554384 C142.454376,178.49107 142.45812,178.427757 142.461524,178.364444 C141.181305,178.259943 139.901085,178.156123 138.620526,178.051963 L138.620526,178.051963 Z M143.947341,178.627568 C145.574762,178.962175 147.202523,179.296781 149.06073,179.678703 C147.30396,178.831464 145.629565,178.679648 143.947341,178.627568 L143.947341,178.627568 Z M157.427939,183.966638 C157.14371,183.856691 156.86697,183.709981 156.572871,183.651093 C156.411524,183.619096 156.220564,183.73517 156.042878,183.784187 C156.124573,183.926131 156.190269,184.178022 156.290344,184.192318 C157.389134,184.351282 157.094013,185.132485 156.877182,185.700601 C156.633801,186.33986 155.960843,186.240465 155.393408,186.231955 C155.39545,186.245911 155.384557,186.304459 155.408725,186.328287 C155.600026,186.52197 155.798135,186.708846 155.994202,186.897765 C155.686827,186.923294 155.338264,187.052984 155.080586,186.951887 C154.550594,186.743567 154.082893,186.381728 153.562092,186.143453 C153.312583,186.029081 153.000443,186.051547 152.716554,186.012061 C152.678771,186.087288 152.640987,186.162515 152.603203,186.237402 L152.359141,185.632182 C152.315231,185.695495 152.27132,185.758809 152.227409,185.822122 C151.848551,185.61278 151.467992,185.406161 151.091176,185.193415 C150.863453,185.065087 150.624497,184.792092 150.420261,184.817961 C149.710541,184.908166 149.481797,184.393491 149.153657,183.969361 C149.028052,183.806993 148.879981,183.607523 148.701615,183.549656 C147.931305,183.300148 147.157591,183.034981 146.364134,182.888612 C144.464058,182.538347 142.560238,182.185359 140.642803,181.9607 C139.158347,181.787099 137.644278,181.686683 136.156418,181.773824 C134.720639,181.857561 133.343067,182.322197 132.261638,183.386607 C132.234066,183.311721 132.206834,183.236494 132.179262,183.161267 C131.877334,183.222197 131.549535,183.229346 131.280964,183.358695 C130.979376,183.504384 130.617878,183.704535 130.480359,183.979573 C129.950367,185.0416 128.933612,185.407523 127.989361,185.909262 C127.743256,186.039974 127.639096,186.430745 127.394694,186.574051 C126.862999,186.886191 126.286033,187.122424 125.722341,187.37806 C124.48399,187.939028 123.256191,188.527568 121.996396,189.036456 C121.243446,189.340427 120.445904,189.546706 119.654149,189.739368 C118.377674,190.050488 117.10188,190.432409 115.803279,190.569928 C113.768748,190.785397 111.708007,190.985548 109.672455,190.891259 C107.396585,190.786078 105.122076,190.42424 102.873438,190.024958 C101.192916,189.726433 99.5249887,189.279497 97.9036952,188.740654 C95.4099735,187.911797 93.5098979,186.326585 92.3794516,183.89924 C92.2582716,183.638839 92.0911384,183.399542 91.9440885,183.151396 C91.3460174,182.139406 91.4389448,181.101887 91.8058888,180.043264 C91.92809,179.690276 91.9873185,179.315163 92.1173487,178.777001 C92.3869402,178.856653 92.7504803,178.964217 93.1633775,179.086418 C92.9666301,178.6725 92.7852005,178.290919 92.6037708,177.909679 C92.6868268,177.837175 92.7698828,177.764671 92.8529387,177.692167 C93.4513502,178.241222 94.0865242,178.755896 94.6362595,179.349883 C95.1008964,179.852303 95.4957526,180.427568 95.8705257,181.003514 C96.876388,182.549921 98.3645877,183.478173 100.01924,184.104497 C103.97461,185.601547 108.108347,186.338839 112.310503,186.608771 C114.936638,186.777266 117.485843,186.169663 119.975821,185.35306 C122.987961,184.364898 125.822076,182.987326 128.596623,181.466108 C130.732591,180.295495 132.873665,179.123862 135.075669,178.087364 C136.779679,177.285738 138.651502,177.174769 140.52775,177.217318 C144.161789,177.300034 147.742387,177.751396 151.09424,179.202492 C152.546698,179.831539 153.840874,180.833317 155.186789,181.697576 C155.85396,182.12579 156.486751,182.610851 157.111033,183.101017 C157.31663,183.262364 157.44598,183.520722 157.610049,183.73483 C157.549459,183.812099 157.488529,183.889368 157.427939,183.966638 L157.427939,183.966638 Z" id="Fill-18" fill="#52616F"></path>
                <path d="M92.7696104,161.918033 C93.8888238,162.234259 93.209739,161.026884 93.8939297,160.726997 C94.1182489,161.235545 94.4334531,161.736944 94.563143,162.282254 C95.1377269,164.694622 96.4700265,166.662776 98.1876513,168.361679 C101.126948,171.268638 104.736819,172.87087 108.810987,173.347761 C111.197144,173.626884 113.583302,173.377716 115.936441,172.849425 C119.858793,171.969168 123.477515,170.366256 126.903574,168.299047 C129.978347,166.443563 133.129028,164.721172 136.554066,163.62034 C138.639315,162.950446 140.833491,163.055968 142.94393,163.609107 C144.887235,164.117995 146.807054,164.742958 148.69045,165.443147 C149.744308,165.83528 150.759361,166.402375 151.683529,167.046059 C152.310533,167.483124 152.7493,168.190461 153.107734,168.592806 C152.902477,169.189856 152.834739,169.623177 152.619951,169.96357 C152.145443,170.715159 151.618173,171.437133 151.058907,172.127791 C150.959172,172.251014 150.565677,172.24829 150.366887,172.163873 C148.101229,171.202602 145.87812,170.133767 143.581146,169.255893 C141.26511,168.37053 138.87691,167.491634 136.361403,167.704039 C135.041698,167.815688 133.71893,168.385507 132.489429,168.948177 C130.709172,169.763419 128.887046,170.533389 127.355957,171.816672 C125.742833,173.168374 123.875775,174.058843 121.91545,174.793411 C121.026683,175.126316 120.221653,175.690348 119.326078,175.994319 C118.114618,176.405514 116.856524,176.684297 115.610685,176.988268 C114.518362,177.254796 113.396426,177.735091 112.322144,177.654758 C110.94219,177.551959 109.660269,178.134372 108.357924,178.010469 C105.288937,177.718411 102.355087,176.897723 99.5781581,175.473177 C97.1811082,174.243336 95.3572806,172.416785 93.8762292,170.267882 C92.8870461,168.832784 91.9414334,167.265272 92.0649962,165.383918 C92.1078858,164.734107 92.3240356,164.09621 92.4581505,163.452186 C92.5599281,162.963722 92.6569402,162.474576 92.7696104,161.918033" id="Fill-20" fill="#52616F"></path>
                <path d="M203.678374,36.4890772 C203.720582,36.577239 203.762451,36.6650605 203.80466,36.7532224 C204.325121,36.7532224 204.846263,36.7658169 205.366044,36.7504992 C206.34059,36.720885 207.317179,36.6078744 208.2873,36.6514448 C209.849365,36.7219062 211.422663,36.7940696 212.962943,37.0418759 C215.103676,37.3860136 217.262451,37.7461498 219.331702,38.3707716 C221.500688,39.025348 223.571641,40.0039788 225.688207,40.8341982 C226.695091,41.2293949 227.712526,41.5973601 228.715325,42.001407 C229.231362,42.2093873 229.726293,42.4691074 230.230756,42.7056808 C229.825008,41.4200151 228.993427,40.6309834 227.866044,40.1074584 C227.193767,39.7953177 226.499365,39.4879425 225.908442,39.0518986 C222.796566,36.7556051 219.32115,35.209879 215.665325,34.0467549 C213.042595,33.2121104 210.371868,33.0408926 207.800877,34.1778064 C206.36646,34.8122995 205.048797,35.7099168 203.678374,36.4890772 M231.880303,53.3657791 C232.236014,52.5553026 232.290477,51.9909304 231.756399,51.1688805 C230.933328,49.9019365 230.053411,48.6615431 229.089077,47.5008018 C228.583933,46.8928593 227.864002,46.4537519 227.207383,45.9863918 C226.866989,45.7436914 226.451029,45.607534 226.07149,45.4186157 C224.682685,44.7286384 223.507307,43.6056808 221.854017,43.4426324 C221.291687,43.3871483 220.748759,43.1141528 220.201067,42.9293192 C218.32618,42.296528 216.454357,41.6545461 214.577428,41.0282224 C214.37966,40.9625265 214.153298,40.9883964 213.943275,40.9526551 C212.378828,40.6844251 210.838207,40.3423298 209.225424,40.3147579 C207.810068,40.2902496 206.40118,39.9328366 204.987186,39.7374508 C204.753676,39.7054539 204.508593,39.7411952 204.270318,39.7619592 C203.375424,39.8395688 202.48087,39.9896823 201.586316,39.9907035 C200.354092,39.9917247 199.329168,40.5496293 198.749818,41.4765204 C198.106815,42.5058699 197.793313,43.756475 197.430113,44.9393419 C197.207837,45.6636989 197.382799,45.7859002 198.111581,45.6105976 C199.116422,45.3685779 200.113775,45.0914977 201.123381,44.871944 C203.119788,44.4372617 205.143767,44.2970197 207.151747,44.6963011 C208.89388,45.0424811 210.609803,45.52618 212.331172,45.9714145 C214.713245,46.5878669 217.165779,46.9881694 219.359274,48.1972466 C220.080908,48.594826 220.7491,49.1190318 221.507837,49.4165356 C224.933555,50.7590469 228.383101,52.0409682 231.880303,53.3657791 M207.956437,47.8963389 C203.428865,47.6825719 199.952088,48.7129425 196.456248,49.6183888 C196.289455,49.6616188 196.053563,49.8393041 196.031437,49.9826097 C195.680832,52.2543949 195.310144,54.5254992 195.05587,56.8091982 C194.95171,57.7459607 195.164455,58.7133585 195.14233,59.6644175 C195.1168,60.7669516 194.858442,61.8759531 194.934349,62.9658926 C195.1682,66.3208094 195.343502,69.6981921 196.342216,72.9404387 C196.871528,74.6577231 197.468238,76.3664977 198.202126,78.0037897 C198.728714,79.1781467 199.516725,80.238472 200.220998,81.3284115 C200.613472,81.9353328 201.033858,82.4888124 201.633631,82.9738729 C202.401899,83.5957716 202.797436,84.6751589 203.561278,85.3062481 C205.460673,86.8761422 207.69093,87.8615809 210.048835,88.582534 C211.72357,89.094826 213.384349,89.2966793 215.120356,88.9365431 C217.733555,88.3942965 220.020318,87.088888 222.084803,85.5499697 C223.846679,84.2363918 225.247738,82.4336687 226.776104,80.8168003 C227.133177,80.4389637 227.43,79.9675189 227.635938,79.4882451 C229.424365,75.3225113 230.561959,70.9726248 231.275764,66.5025794 C231.416346,65.6216415 231.701256,64.7621483 231.816649,63.8791679 C232.005567,62.433177 232.052201,60.9674433 232.269032,59.5265582 C232.434463,58.4277685 232.446036,57.4630938 231.547738,56.6277685 C230.918691,56.0429728 230.520772,55.0864675 229.805265,54.7430106 C228.068238,53.9100681 226.236241,53.2354085 224.385522,52.6900983 C222.60969,52.1669138 220.761694,51.8932375 219.128147,50.9397958 C218.555265,50.6051891 217.984425,50.2150983 217.359463,50.0329879 C216.066989,49.6565129 214.740817,49.3940696 213.424856,49.0999697 C211.329395,48.6319289 209.23121,48.1764826 207.956437,47.8963389 M241.732648,102.78034 C241.213888,102.335446 240.866346,102.037602 240.505189,101.728185 C239.553109,102.27826 240.370734,103.366498 239.661354,104.159614 C239.214758,103.227958 238.738548,102.39059 238.401218,101.499781 C237.657799,99.5367322 237.008669,97.5144554 235.473495,95.999705 C234.079244,94.6245159 232.595809,93.337829 231.127693,92.0392284 C229.911127,90.9635855 228.648268,89.9407035 227.431362,88.8654009 C227.087224,88.5614297 226.860862,88.4913086 226.50447,88.8442965 C225.436997,89.8998563 224.354887,90.9414599 223.249289,91.9568533 C222.318994,92.8115809 221.237905,93.3813994 219.99649,93.7068154 C218.9491,93.9811725 217.969107,94.5230787 216.917973,94.7722466 C213.593691,95.5605976 210.296982,95.8305295 207.029887,94.3515204 C203.662716,92.8268986 200.818048,90.7086309 198.680719,87.6753858 C198.426785,87.3152496 198.19736,87.0446369 197.754508,87.5045083 C195.835711,89.4981921 193.66264,91.293767 192.316384,93.7534493 C191.535522,95.1803782 191.029357,96.763888 190.472814,98.3034871 C190.352995,98.6350303 190.545658,99.0806051 190.597738,99.4734191 C190.630416,99.7191831 190.669221,99.9646067 190.705303,100.21003 C190.572209,100.314191 190.438775,100.418691 190.305681,100.522852 C190.130378,100.11472 189.955416,99.7062481 189.780454,99.2981165 C189.689909,99.3403253 189.599705,99.3821936 189.50916,99.4244024 C189.055076,100.238964 188.600991,101.053525 188.079168,101.989266 C187.947436,101.744523 187.699289,101.497398 187.703374,101.255038 C187.727882,99.8461498 187.704054,98.423646 187.898759,97.0341604 C188.238472,94.6112405 189.540477,92.5988351 191.072587,90.7801135 C192.681967,88.869826 194.439758,87.0841225 196.149894,85.260295 C196.471906,84.9164977 196.598192,84.6533737 196.375234,84.1625265 C195.432345,82.0881694 194.437716,80.0270877 193.668086,77.8870348 C192.219713,73.85882 191.901785,69.6604085 191.911316,65.3952799 C191.917784,62.4787897 192.277239,59.6266339 192.710219,56.7632451 C193.125159,54.0206959 193.480189,51.2692965 193.872663,48.4440318 C193.822965,48.4368835 193.57652,48.400121 193.167368,48.3391906 C193.410408,47.2907791 193.648684,46.2491755 193.893086,45.2092738 C194.421717,42.9630182 195.694788,41.1477005 197.212262,39.4716036 C197.370545,39.2969818 197.533933,39.0985325 197.60848,38.8810212 C198.356664,36.7025038 200.201596,35.586354 201.939985,34.3602572 C204.805076,32.3396823 208.074554,31.3185023 211.43764,30.5655522 C213.321036,30.1438048 215.24562,30.0695991 217.151823,30.4620726 C218.777882,30.7966793 220.433555,31.0720575 221.994939,31.6095386 C223.116195,31.9952042 224.145885,32.7073071 225.141195,33.3846899 C226.852012,34.5491755 228.440628,35.9029198 230.198419,36.985711 C231.992632,38.0913086 233.607799,39.3150227 234.732799,41.1265961 C234.982307,41.5282602 235.340401,41.8621861 235.646415,42.2291301 C236.469486,43.2169516 236.777201,44.3739486 236.734992,45.6344251 C236.701974,46.6307564 235.60829,47.3649849 234.584728,46.8564372 C234.780794,47.2233812 234.890061,47.428298 234.999667,47.6328744 C235.232837,48.0682375 235.456135,48.5093873 235.702239,48.9376021 C236.091649,49.6136233 236.010635,50.2256505 235.506172,50.8073828 C235.427201,50.8986082 235.345166,51.0575719 235.370696,51.1579879 C235.843502,52.992708 235.594334,54.8641906 235.675008,56.7186536 C235.804697,59.6896067 235.597738,62.6340091 234.974138,65.5392663 C234.206551,69.1157791 233.420582,72.6892284 232.576407,76.2483812 C232.283328,77.4836687 231.790439,78.6709607 231.392519,79.8813994 C231.104887,80.7568911 230.877844,81.6572315 230.522133,82.5041301 C230.251861,83.1478139 229.85292,83.7462254 229.452277,84.3238729 C229.203109,84.6826475 229.257912,84.870885 229.596604,85.0955446 C232.718011,87.1671785 235.404054,89.7470197 237.99649,92.4194478 C239.711051,94.1860893 241.188018,96.164115 241.758517,98.6159682 C242.017216,99.7266717 242.287489,100.911921 241.740477,102.058026 C241.681589,102.181929 241.732648,102.358253 241.732648,102.78034" id="Fill-22" fill="#52616F"></path>
                <path d="M217.668302,81.2604349 C217.046744,82.0450416 216.504497,82.1131203 215.821328,81.413612 C215.341373,80.9224244 214.954346,80.3389902 214.5343,79.7902761 C212.589293,77.2488994 211.709036,77.1770764 209.225866,77.7509796 C208.309527,77.9627042 207.44629,78.4018116 206.55514,78.7272277 C206.28657,78.825261 206.005405,78.8902761 205.657863,78.9913729 C205.644247,77.6856241 204.4784,78.8630446 204.04576,77.982447 C204.828325,77.4500719 205.595231,76.7988994 206.46902,76.3608132 C208.326887,75.4291566 210.37163,75.4843003 212.394928,75.3478026 C215.559565,75.1343759 217.876282,76.4986725 219.732787,78.8909569 C220.025185,79.2674319 220.361494,79.6660325 220.473824,80.1065015 C220.553135,80.4165998 220.883317,80.8706846 220.295117,81.2161838 C219.645306,81.5974244 219.036343,81.829913 218.308922,81.5317284 C218.091411,81.4428858 217.875942,81.3485968 217.668302,81.2604349" id="Fill-24" fill="#52616F"></path>
                <path d="M215.142005,70.8423563 C214.248132,70.772916 213.350855,70.7300265 212.462428,70.6166755 C212.232322,70.5870613 211.972943,70.3790809 211.825212,70.1799508 C211.050817,69.1349433 210.306036,68.0678101 209.556831,67.0040809 C209.467988,66.877795 209.336596,66.7096407 209.360764,66.5877799 C209.479902,65.9842625 209.500325,65.2847542 209.834932,64.820798 C210.158646,64.3725 210.790756,64.0818041 211.344917,63.880972 C212.123737,63.5991263 212.917874,64.0811233 212.93115,64.9174697 C212.946127,65.8596785 213.556793,66.4077118 213.995219,67.0813502 C214.196392,67.3904274 214.484365,67.6423185 214.697451,67.9449281 C215.104561,68.5232564 215.531074,68.9524924 216.341891,68.6512443 C216.498812,68.5930371 216.979788,68.8891793 216.979107,69.0195499 C216.976044,69.4399357 216.950174,69.9998828 216.688752,70.2463275 C216.288109,70.6234834 215.683911,70.784149 215.165832,71.0367209 C215.158003,70.9717057 215.149834,70.907031 215.142005,70.8423563" id="Fill-26" fill="#52616F"></path>
                <path d="M207.179387,60.7209985 C206.434266,61.113472 205.784115,61.4559077 205.08767,61.8228517 C205.739183,62.5764826 205.674508,62.584652 204.971256,62.864115 C204.192095,63.1738729 203.596747,63.1578744 203.167171,62.3909682 C203.055862,62.1921785 203.043268,61.93382 203.004123,61.6996293 C202.943873,61.3425567 202.971445,60.9511044 202.831884,60.6311346 C202.639902,60.1916868 202.610628,59.8563994 202.94966,59.4737973 C203.315923,59.0609002 203.585855,58.5615431 203.955522,58.1523903 C204.396672,57.6639259 204.817738,57.6717549 205.536309,57.8885855 C206.624887,58.2174054 206.644289,59.2144175 207.230787,59.8209985 C207.394175,59.990174 207.198109,60.5068911 207.179387,60.7209985" id="Fill-28" fill="#52616F"></path>
                <path d="M219.157523,61.7380257 C219.44039,61.4289486 219.721895,61.1185098 220.006804,60.811475 C220.109603,60.7005068 220.237591,60.6096218 220.326093,60.4887821 C220.891146,59.7171104 221.663158,59.6425643 222.393642,60.2899924 C222.528778,60.4098109 222.676169,60.5228215 222.834111,60.6096218 C223.808317,61.1436989 224.040465,61.7982753 223.479837,62.7326551 C223.328362,62.9848865 222.939633,63.1057262 222.644172,63.2554992 C222.442659,63.3579576 222.18362,63.3634039 222.002871,63.4883283 C221.58691,63.7756203 221.291789,63.6993722 220.979308,63.3222163 C220.835321,63.1489561 220.580026,62.9770575 220.368302,62.9678669 C219.499958,62.9304236 219.321933,62.7735023 219.157523,61.7380257" id="Fill-30" fill="#52616F"></path>
            </g>
        </g>
    </g>
</svg>