<?xml version="1.0" encoding="UTF-8" standalone="no"?>
<svg width="248px" height="233px" viewBox="0 0 248 233" version="1.1" xmlns="http://www.w3.org/2000/svg" xmlns:xlink="http://www.w3.org/1999/xlink">
    <!-- Generator: Sketch 3.7.2 (28276) - http://www.bohemiancoding.com/sketch -->
    <title>step-4</title>
    <desc>Created with Sketch.</desc>
    <defs></defs>
    <g id="Page-1" stroke="none" stroke-width="1" fill="none" fill-rule="evenodd">
        <g id="Desktop" transform="translate(-204.000000, -1507.000000)" fill="#52616F">
            <g id="step-4" transform="translate(204.000000, 1507.000000)">
                <path d="M204.468949,115.243452 C205.950413,115.206626 205.950413,115.206626 206.142003,114.690722 C205.531118,114.892747 205.000033,115.067928 204.468949,115.243452 M192.311789,109.945025 C192.332083,109.6191 192.353753,109.271149 192.383678,108.788629 C191.797215,109.02748 191.426419,109.178913 191.126136,109.301092 C191.475262,109.490727 191.814069,109.674855 192.311789,109.945025 M190.643207,109.568852 C190.620849,109.49348 190.598835,109.418452 190.576477,109.34308 C188.37853,109.548891 185.68527,110.367316 185.465132,110.943793 C187.214202,110.479514 188.928877,110.024183 190.643207,109.568852 M51.9589237,47.0236677 C52.0425076,47.1128065 52.1257476,47.2019453 52.2093315,47.2910842 C53.3083051,46.2696012 54.4069348,45.247774 55.5055645,44.226291 C55.449154,44.1650295 55.3930874,44.1041123 55.3366768,44.043195 C53.8507406,44.6399778 52.9853204,45.9206174 51.9589237,47.0236677 M208.203739,114.362044 C208.265309,114.508315 208.326879,114.654585 208.388449,114.800855 C209.868194,114.321433 211.347939,113.84201 212.93053,113.329204 C212.918835,113.2793 212.872055,113.077275 212.8239,112.870775 C212.390846,113.058001 212.066485,113.251767 211.715983,113.339185 C210.770419,113.574938 209.810064,113.750462 208.864155,113.984495 C208.627506,114.043003 208.422846,114.232638 208.203739,114.362044 M195.903146,116.992157 C196.645082,117.518386 200.927123,116.607724 201.780505,115.749719 C199.877681,116.152049 197.975201,116.554034 195.903146,116.992157 M152.384821,116.768105 C154.942214,116.449064 157.360644,116.182679 159.767723,115.837137 C162.21367,115.485744 164.65205,115.076876 167.08699,114.654241 C169.492693,114.236768 171.899085,113.814133 174.288277,113.313372 C176.62106,112.824313 179.008189,112.567566 181.29144,111.855143 C180.381304,111.497211 152.930352,116.174419 152.384821,116.768105 M126.45661,167.072702 C126.420838,167.621301 126.403639,168.19296 126.343445,168.760145 C126.091662,171.12938 125.772117,173.493108 125.580871,175.867161 C125.341814,178.833179 125.191501,181.80608 125.028117,184.777604 C124.934902,186.468489 124.904976,188.162815 124.822768,189.854733 C124.734369,191.681219 124.591279,193.505295 124.52111,195.33247 C124.442341,197.382319 124.006191,199.451786 124.791467,201.468251 C124.855445,201.632762 124.856133,201.860256 124.797659,202.02752 C124.49256,202.901356 124.970674,203.526016 125.464266,204.124864 C125.631434,204.327578 125.933781,204.418437 126.174558,204.560578 C126.259173,204.299356 126.406391,204.040888 126.418086,203.776569 C126.515085,201.6276 126.524372,199.473468 126.679845,197.329318 C126.924749,193.954431 127.273875,190.586773 127.555928,187.214295 C127.661182,185.957059 127.663245,184.69053 127.782258,183.434671 C127.941515,181.753422 128.202241,180.081467 128.358402,178.399874 C128.586796,175.945631 128.763939,173.486225 128.957936,171.028539 C129.055279,169.795394 129.159157,168.56225 129.215911,167.327384 C129.224854,167.127424 129.015379,166.906814 128.875728,166.719244 C128.844083,166.676567 128.682075,166.73129 128.564438,166.742647 L128.564438,167.646081 C127.845204,167.450595 127.228472,167.282643 126.45661,167.072702 M129.968854,113.964533 C129.864288,113.993787 129.760067,114.023386 129.655845,114.05264 C129.511723,115.671594 129.312566,117.287795 129.236549,118.909846 C129.122008,121.350668 129.134047,123.796996 129.016411,126.237473 C128.914596,128.353746 128.632544,130.462792 128.563406,132.579409 C128.452649,135.96875 128.486702,139.36291 128.393831,142.752939 C128.327789,145.169669 128.230447,147.590529 128.010308,149.997278 C127.667717,153.740765 127.205082,157.473239 126.809176,161.212253 C126.783379,161.452824 126.816399,161.765326 126.952954,161.944637 C127.341293,162.455034 127.766779,162.947879 128.240422,163.378774 C128.475007,163.592501 128.91666,163.828598 129.137831,163.739804 C129.378951,163.642405 129.58258,163.190171 129.611473,162.875604 C129.713287,161.752592 129.668227,160.614093 129.799967,159.4959 C130.029393,157.552397 130.400189,155.625415 130.618264,153.68088 C130.935401,150.85425 131.194064,148.020391 131.433465,145.185845 C131.779495,141.086146 132.124494,136.985415 132.394852,132.88021 C132.545165,130.599081 132.487379,128.30453 132.625309,126.022369 C132.775623,123.530612 133.051828,121.05916 132.640788,118.55157 C132.529687,117.873908 132.311612,117.372115 131.954574,116.86103 C131.631589,116.39916 131.29519,115.946238 130.976677,115.48127 C130.633398,114.98051 130.304222,114.470456 129.968854,113.964533 M147.859251,124.92104 C148.090741,124.903487 148.408566,124.918631 148.707473,124.850486 C150.953232,124.338368 153.17904,123.716805 155.443373,123.311034 C157.890008,122.872567 160.384455,122.703582 162.835906,122.286798 C166.724449,121.626344 170.593043,120.849563 174.472644,120.13714 C177.263589,119.624334 180.057631,119.127703 182.852705,118.638644 C185.390147,118.195015 187.931029,117.769282 190.470535,117.339075 C191.631767,117.142213 191.573981,117.142213 191.641054,115.98031 C191.719479,114.619136 191.917259,113.265533 192.051406,111.907456 C192.078924,111.62765 192.055534,111.343025 192.055534,110.842953 C189.283506,111.441801 186.619484,112.01105 183.958558,112.594411 C181.470302,113.140257 178.99615,113.755969 176.496544,114.241586 C172.995994,114.922001 169.478247,115.513622 165.966691,116.136561 C164.246857,116.441492 162.528743,116.761566 160.801687,117.021411 C157.590069,117.504275 154.314474,117.561062 151.166147,118.467594 C151.001387,118.515089 150.845226,118.591493 150.648821,118.668931 C150.741004,118.852371 150.82906,118.964225 150.853481,119.088468 C150.915739,119.4051 150.949792,119.727239 150.994852,120.046969 C150.671867,120.004292 150.348194,119.964369 150.025897,119.915498 C149.977054,119.90827 149.935434,119.85871 149.889343,119.830833 C149.085492,119.347969 149.010164,119.414737 148.730519,120.35362 C148.402718,121.453229 147.992022,122.528058 147.617098,123.6139 C147.662846,123.602886 147.70825,123.591873 147.753997,123.580516 C147.786674,123.998332 147.819695,124.415805 147.859251,124.92104 M241.574358,100.343498 C241.107939,100.294282 240.672821,100.166253 240.262125,100.221663 C239.335135,100.346251 238.424655,100.591297 237.499384,100.732405 C236.392499,100.901046 235.278735,101.027699 234.165315,101.144027 C233.176755,101.24762 232.181659,101.289609 231.19413,101.399742 C230.05732,101.526394 228.924294,101.689529 227.791956,101.85404 C227.27119,101.929756 226.754896,102.038857 226.23929,102.146236 C225.736067,102.251207 225.240755,102.395068 224.735123,102.482142 C223.904444,102.625315 223.06035,102.696557 222.236893,102.869328 C220.396671,103.254449 218.573304,103.72217 216.728266,104.078381 C215.844272,104.248743 214.909714,104.158572 214.027784,104.335817 C212.883062,104.566064 211.777897,104.988699 210.637648,105.249232 C209.305809,105.553818 207.957115,105.789572 206.610485,106.024981 C204.362319,106.418362 202.102802,106.749449 199.865642,107.195832 C199.351756,107.298393 198.616355,107.666994 198.482896,108.076207 C197.734768,110.373167 196.929886,112.639152 195.849487,114.803264 C195.724971,115.05244 195.65377,115.328117 195.557803,115.591747 C195.611118,115.657827 195.664777,115.724251 195.718092,115.790331 C196.133947,115.622034 196.538452,115.413126 196.967379,115.292323 C199.077958,114.698982 201.183723,114.084303 203.312533,113.563581 C205.567578,113.011883 207.856333,112.597508 210.111723,112.046155 C211.741781,111.647612 213.329875,111.077329 214.958214,110.670182 C216.064755,110.393129 217.220139,110.315691 218.332871,110.058256 C219.632377,109.758143 220.900239,109.321397 222.197681,109.01096 C225.148227,108.305421 228.068505,107.480112 231.099883,107.118739 C233.569221,106.824133 236.018264,106.348152 238.466963,105.901425 C238.783412,105.843606 239.166591,105.539019 239.310025,105.246479 C240.085326,103.66435 240.794929,102.050214 241.574358,100.343498 M79.9134424,17.3837962 C79.4181304,17.5297223 79.1666907,17.6959542 78.9716616,17.6453619 C78.099018,17.4185569 77.902613,17.9392792 77.7636505,18.6128109 C77.5638058,19.5837016 77.1727157,19.7678301 76.2175201,19.5296677 C75.9072621,19.4522304 75.4081664,19.4959394 75.2213925,19.6958996 C74.8471567,20.0968523 74.6641664,20.6695436 74.3356782,21.1228095 C73.9707295,21.6263235 73.5885825,22.1480783 73.1094369,22.5304461 C72.5553065,22.9726987 71.9829459,23.3371699 71.1261248,23.2683368 C70.2400666,23.1970945 69.8063245,24.0502806 69.4482552,24.7788789 C69.0258641,25.6375716 68.7138863,26.57026 67.6874896,26.9423028 C67.5227295,27.0021876 67.3968377,27.1773678 67.2620028,27.3091832 C66.8578419,27.7039409 66.494957,28.1572068 65.8059917,27.8478021 C65.6632455,27.7837873 65.3774092,27.899771 65.2257198,28.0198848 C64.7445104,28.4008759 64.2976976,28.8255761 63.8329986,29.2285938 C62.7288655,30.186062 61.6264521,31.1459394 60.5147517,32.0948035 C59.1509237,33.258771 57.742724,34.3728346 56.4263634,35.5877386 C55.8137587,36.1528582 55.1729487,36.8336174 54.9046546,37.5897489 C54.5617198,38.5554771 53.836294,39.1725657 53.0902302,39.3597917 C51.9960721,39.6344357 51.1261803,40.182003 50.261448,40.7918641 C49.7537531,41.1501403 49.0806103,41.5844771 48.9547184,42.1000369 C48.7775756,42.824161 48.4054036,43.2261462 47.8664078,43.5926824 C47.1210319,44.0992939 46.3612094,44.5845672 45.6299362,45.110452 C45.3458197,45.3145421 45.1390957,45.6232585 44.8687379,45.8504077 C44.4945021,46.1653191 44.0769265,46.4296381 43.7071623,46.7493678 C42.8334868,47.5044668 42.005215,48.3146322 41.1033343,49.0329055 C40.6128377,49.4235332 39.6628017,49.5673944 39.5300305,50.0068936 C39.2675839,50.8762555 38.595473,51.2868449 38.0819307,51.8567829 C37.6743301,52.3090162 37.1102247,52.6380384 36.5746685,52.951229 C36.0332649,53.2678612 35.4385465,53.4915687 34.8723773,53.7665569 C33.9811595,54.1991728 34.2363828,55.4811891 33.2915062,55.8948759 C32.8164882,56.103096 32.3156727,56.3243944 31.9349015,56.6620207 C30.8593176,57.6160473 29.7816699,58.5803988 28.8171872,59.6428375 C28.1430125,60.3852024 27.3763107,61.0800724 27.1358779,62.1844993 C27.0412871,62.6198685 26.2408766,63.3233427 26.0169542,63.2376455 C24.8478114,62.7898863 24.0683828,64.3110975 22.9412039,63.7428804 C22.8806657,63.7122496 22.6935479,63.9101448 22.5776311,64.0151152 C20.387251,65.9978523 18.2040943,67.9888493 16.0078669,69.9647031 C14.4294036,71.3843855 13.0022857,72.891486 11.9122552,74.7654668 C11.1992122,75.9920724 10.0699695,76.9915288 9.05595562,78.0226484 C8.1901914,78.9026795 7.1981914,79.6567459 6.30972538,80.5164712 C5.71466297,81.09226 4.93248266,81.6876662 4.75327601,82.4042186 C4.64183079,82.8512895 5.50071567,83.5378996 5.91863523,84.1209158 C6.49856311,84.9303929 6.93746463,84.9699719 7.6683939,84.3150251 C10.0108072,82.2169926 12.3628516,80.1303176 14.7083606,78.0357267 C15.9689986,76.9099616 17.2065908,75.7576957 18.4878669,74.6560222 C19.1252372,74.1081108 19.7223634,73.4493781 20.6686158,73.4111758 C20.8175534,73.405325 20.9878169,73.3213486 21.1054535,73.2225731 C23.0815423,71.5630074 25.099595,69.9495598 27.0048266,68.2115244 C28.4016755,66.9370798 29.9165049,65.8133796 31.165448,64.3341566 C32.5041664,62.7485864 34.254613,61.5147533 35.8007434,60.1002334 C37.7857753,58.2844165 39.7068294,56.3966691 41.7276338,54.6221521 C43.9692649,52.6531817 46.3254369,50.8156824 48.5694757,48.8498095 C50.8104189,46.8866898 52.9457642,44.8034564 55.180172,42.8327651 C57.277337,40.9828759 59.3837892,39.1340192 61.596871,37.4283353 C63.6603273,35.8379468 65.937387,34.525644 67.9987795,32.9331905 C71.4663079,30.2542068 74.8402774,27.4537326 78.2421082,24.68974 C78.4533037,24.5180015 78.6490208,24.2392275 78.7043994,23.9786942 C78.9929875,22.6188966 79.2389237,21.2498065 79.4893315,19.8820931 C79.6317337,19.1049675 79.7545298,18.3244003 79.9134424,17.3837962 M142.625798,122.352533 C143.703789,119.92479 144.673087,117.758613 145.613148,115.579702 C145.670247,115.446854 145.527157,115.191139 145.420183,115.030069 C144.773526,114.055737 144.082153,113.10997 143.457853,112.121527 C142.310036,110.30399 141.209343,108.45651 140.068405,106.634154 C138.92334,104.805258 137.725992,103.008715 136.600189,101.168118 C134.991112,98.5373176 133.470436,95.8521388 131.831778,93.2406115 C129.5757,89.6451152 127.22572,86.1088154 124.950724,82.5246765 C122.4322,78.5567932 119.963551,74.5569025 117.453626,70.5835126 C115.473753,67.4495421 113.44435,64.3468907 111.474452,61.2067253 C110.289143,59.317257 109.220094,57.3541374 108.019994,55.4746499 C106.342813,52.847291 104.537675,50.3008109 102.885603,47.6579645 C100.750258,44.2417784 98.7112233,40.764675 96.6316006,37.3137282 C93.6779584,32.4128124 90.7191567,27.5153383 87.7748017,22.6089158 C86.376233,20.2785716 84.9099029,18.001229 82.9888488,16.0560059 C82.7972594,15.8618966 82.5592344,15.7132171 82.3428793,15.5435436 C82.2647989,15.5690118 82.1867184,15.5941359 82.108638,15.6196041 L82.108638,24.3562437 C82.2390014,24.3400679 82.4539806,24.3139114 82.7119556,24.281904 C82.6576089,25.15987 82.6782469,25.8647208 83.5931983,26.34139 C84.0606491,26.5850591 84.3839778,27.2823383 84.5721276,27.8422954 C84.8301026,28.6077194 85.8368932,29.0847326 85.4513065,30.0948582 C85.4375479,30.1306514 85.560344,30.2070561 85.5981803,30.2762334 C85.8465243,30.7274343 86.0886768,31.1817326 86.3328932,31.6349985 C86.4828627,31.4735849 86.6328322,31.3118272 86.7824577,31.1504136 C86.861914,31.5592821 86.8471234,32.0201196 87.0383689,32.3673826 C87.5921553,33.373034 88.2539473,34.3181123 88.8276838,35.3134387 C90.0047379,37.3543397 91.1577143,39.4093516 92.3034674,41.4681492 C92.441742,41.7162925 92.3867074,42.1747208 92.5686657,42.279003 C93.5279889,42.8300118 93.8272399,43.6862954 93.9163273,44.7057134 C93.9331817,44.8991344 94.1763662,45.0663988 94.2943467,45.2587873 C94.5667684,45.7024165 95.0163329,46.1412275 95.0472899,46.6051625 C95.0961331,47.3402999 95.1112677,47.9618626 95.8463245,48.3748612 C96.006957,48.4653767 95.9897587,48.8597903 96.069215,49.1093102 C96.2288155,49.6100709 96.3182469,50.1562614 96.5834452,50.5954165 C96.9903578,51.2696366 97.5228183,51.8681403 97.9954286,52.5038139 C98.0380804,52.5612895 98.0195062,52.6607533 98.0494313,52.7326839 C98.3180693,53.3735199 98.4236671,54.2115628 98.8979972,54.6101064 C99.830147,55.3930827 99.9216422,56.6331108 100.711734,57.4308863 C101.299573,58.0242275 100.749914,59.0360739 101.655578,59.5495687 C102.050796,59.7739645 102.187351,60.4698671 102.421592,60.9609911 C103.019062,62.2123767 103.64405,63.4527489 104.183734,64.7289143 C104.595806,65.703935 104.762974,66.7976928 105.70957,67.4729453 C105.786275,67.5273235 105.866419,67.6632688 105.851972,67.744836 C105.675517,68.74739 106.795817,69.1744993 106.870802,70.0978951 C106.910358,70.5817917 107.202042,71.0687858 107.461049,71.5062201 C108.048888,72.4987932 108.70552,73.4500665 109.295767,74.4409188 C109.568189,74.8983146 109.750147,75.4094003 109.990924,75.9352851 C110.054902,75.9311551 110.226885,75.9197976 110.44668,75.9049985 L110.44668,77.168774 C111.413226,77.3728641 112.004849,78.1702954 112.005881,78.9357194 C112.007601,80.2710812 113.31605,80.9201773 113.371085,82.1443737 C113.372117,82.1646795 113.407201,82.1818877 113.421992,82.203226 C113.932094,82.9273501 114.490008,83.6229084 114.941637,84.3817932 C115.835262,85.8844195 116.658718,87.4286898 117.539273,88.9395761 C117.734302,89.2737607 118.083773,89.5153648 118.294624,89.8430103 C118.614513,90.3399852 118.875584,90.8748183 119.209232,91.4805495 C119.195817,91.5159985 119.12668,91.695997 119.100538,91.7634535 C119.38947,92.0621891 119.626807,92.2545775 119.797759,92.494805 C120.34157,93.2578198 120.831379,94.0600694 121.395484,94.8069084 C122.318347,96.029384 123.287989,97.2157223 124.228738,98.4244313 C125.943756,100.628467 127.719656,102.789137 129.338363,105.061662 C130.401908,106.554651 131.114607,108.299914 132.195007,109.778105 C134.424599,112.828443 136.382458,116.093885 139.139695,118.742238 C140.325692,119.881425 141.428793,121.107343 142.625798,122.352533 M196.538108,100.595083 C196.966003,101.412476 197.225354,102.069832 197.625731,102.625315 C198.011318,103.160148 198.400344,103.907331 199.312888,103.372498 C199.468705,103.281294 199.670613,103.258235 199.855323,103.22726 C202.003739,102.868984 204.159035,102.54891 206.299883,102.150366 C208.351301,101.768343 210.389992,101.317486 212.42937,100.873857 C213.703079,100.596804 214.956838,100.215124 216.238458,99.9896957 C218.814768,99.536774 221.407589,99.1798744 223.986308,98.7414077 C225.431312,98.4956736 226.855678,98.1267282 228.30137,97.8840916 C230.115107,97.5798493 231.940538,97.3434077 233.762186,97.0863161 C235.954974,96.7769114 238.149137,96.4774874 240.342269,96.1701477 C240.533515,96.1433028 240.720976,96.0885805 240.909814,96.0469365 C240.835861,95.8297681 240.812816,95.5712999 240.677293,95.4036913 C240.379761,95.0354343 239.996926,94.7360103 239.698707,94.3680975 C237.909393,92.1592437 236.122829,89.948325 234.358624,87.7195096 C233.124816,86.1611285 231.956361,84.5507784 230.708793,83.0037548 C228.584111,80.3702009 226.363806,77.8120192 224.289687,75.1402629 C222.417476,72.7280074 220.681132,70.2097489 218.894913,67.7307253 C217.530741,65.8378154 216.182047,63.9338922 214.82785,62.0337548 C214.409587,61.4469527 214.035695,60.8226366 213.570996,60.2757578 C212.391878,58.8880827 211.103379,57.5881699 209.987207,56.153 C208.539795,54.291065 207.237193,52.3172762 205.835872,50.4185155 C203.318036,47.0071477 200.77165,43.616774 198.240743,40.2150428 C197.503967,39.2248789 196.665032,38.2894372 196.074441,37.2173619 C195.045981,35.3502644 193.868239,33.6153264 192.538119,31.9454357 C191.151933,30.2060236 190.006868,28.2752555 188.737631,26.4415421 C185.324449,21.5113722 181.88891,16.597034 178.490175,11.6575716 C177.53154,10.26439 176.630691,8.82818759 175.774902,7.36961448 C175.261703,6.49440177 174.956949,6.19669867 174.010008,6.48510931 C172.65306,6.89810783 171.328444,7.29217725 169.927467,6.71570015 C169.870713,6.6922969 169.78025,6.75906499 169.703545,6.77524077 C168.650663,6.99929247 167.606724,7.30525554 166.542147,7.42399261 C165.174879,7.57611374 163.790413,7.57542541 162.413859,7.64460266 C159.7519,7.77813885 157.090974,7.92888331 154.428327,8.04142541 C153.680888,8.07274446 152.919001,7.90651256 152.181193,7.9877356 C150.67909,8.15327917 149.18937,8.42757903 147.693803,8.65094239 C147.483639,8.68226145 147.260405,8.72287297 147.056777,8.68501477 C145.006735,8.30608863 143.049908,8.63476662 141.153964,9.43976957 C140.695456,9.63422304 140.264122,9.97529099 139.791856,10.0393058 C138.521587,10.212421 137.236527,10.2802216 135.955939,10.3734904 C135.314441,10.4199527 134.670191,10.4285569 134.027662,10.4588434 C133.001265,10.5077149 133.101359,11.0249956 133.551612,11.6720266 C135.502935,14.4735332 137.394064,17.3187489 139.406957,20.0751699 C140.348394,21.3644136 141.536799,22.4709055 142.57489,23.6926928 C143.355007,24.6109261 144.055323,25.5969601 144.824777,26.5251743 C146.262214,28.2594239 147.745054,29.9568479 149.170796,31.7007341 C150.601698,33.4511595 151.978252,35.2456381 153.393331,37.0091418 C154.275262,38.1077179 155.205004,39.1680916 156.071456,40.2783693 C156.508294,40.8379823 156.792755,41.5204623 157.248854,42.0604579 C158.293825,43.2980768 159.404838,44.4795968 160.480078,45.6920916 C160.620072,45.8500635 160.697121,46.0620694 160.820261,46.2372496 C161.218574,46.8030576 161.61448,47.3709306 162.031712,47.9229719 C162.341282,48.3325288 162.689376,48.7131758 163.006857,49.1168818 C163.251074,49.4276632 163.469148,49.7584062 163.708893,50.0726292 C163.935911,50.3710207 164.204893,50.6408464 164.405082,50.9554136 C164.991201,51.875712 165.534669,52.8235436 166.129043,53.7379911 C166.480577,54.278675 167.026108,54.7267784 167.251062,55.3073855 C167.521076,56.0046647 168.08587,56.3560576 168.524427,56.8619808 C168.937531,57.3386499 169.190691,57.9498877 169.563551,58.4661359 C170.412117,59.6407725 171.290951,60.7930384 172.156028,61.9552851 C172.22035,62.0416706 172.329387,62.1390694 172.323883,62.2254549 C172.266097,63.1677799 173.138397,63.5463619 173.541182,64.2026854 C174.549004,65.843322 175.713331,67.3872482 176.749703,69.011709 C177.90268,70.8185775 178.952122,72.6911817 180.103723,74.4987386 C181.467551,76.6391034 182.927345,78.7178626 184.277071,80.8664874 C185.107062,82.1880827 185.798436,83.5964077 186.571673,84.9548287 C187.522053,86.6254077 188.504078,88.2784343 189.443795,89.9552083 C189.601675,90.2367356 189.505365,90.7433471 189.712777,90.9009749 C190.890175,91.7951167 191.696777,92.8895628 192.229581,94.2934136 C192.665731,95.4418936 193.41833,96.47026 194.038158,97.5478419 C194.086657,97.6321625 194.192255,97.6834431 194.271024,97.7502112 C194.565459,98.0000753 194.975123,98.1931521 195.131284,98.511161 C195.5437,99.3502363 196.380571,100.025833 196.212028,101.111675 C196.199645,101.192554 196.307307,101.292018 196.411872,101.475458 C196.455212,101.175001 196.483761,100.975041 196.538108,100.595083 M87.5016921,15.1938715 C88.5108904,16.5660591 89.5231845,17.7923205 90.3707184,19.1232083 C92.4885215,22.4481905 94.518957,25.8285835 96.6102746,29.170774 C97.6325437,30.8041832 98.7198225,32.3966366 99.7644494,34.0162792 C100.809764,35.6359217 101.835473,37.2686425 102.87666,38.8910384 C103.587983,39.9989069 104.339207,41.0816514 105.023012,42.2060399 C106.05732,43.9072496 107.022147,45.6507917 108.067806,47.344774 C108.713431,48.3906928 109.493204,49.3536677 110.143645,50.3964889 C111.347528,52.327257 112.457165,54.3172216 113.686502,56.2311256 C115.133914,58.4843767 116.673509,60.6784313 118.158413,62.907935 C118.529209,63.4644505 118.838779,64.0619217 119.186874,64.6342688 C119.600666,65.3146839 120.036128,65.9823648 120.444072,66.6662216 C121.18532,67.9076263 121.885637,69.1738109 122.652338,70.3990399 C124.040244,72.6154653 125.470802,74.80539 126.871434,77.0138996 C127.680444,78.2893767 128.446802,79.592387 129.268194,80.8596041 C130.136366,82.1994402 131.059917,83.503483 131.936344,84.8378124 C132.698574,85.9979941 133.417809,87.1867415 134.176599,88.3489882 C134.969442,89.5632038 135.821792,90.738873 136.584366,91.9709852 C137.551257,93.5321196 138.408766,95.161743 139.395606,96.7094549 C140.647645,98.6732629 141.995994,100.575121 143.276583,102.521032 C144.243817,103.990275 145.16668,105.488427 146.115684,106.969715 C146.618219,107.754756 147.146552,108.523278 147.642208,109.312793 C148.562663,110.778594 149.437714,112.274337 150.395318,113.715357 C150.73894,114.232294 151.240788,114.495925 151.989603,114.291146 C153.362718,113.916006 154.768166,113.638609 156.17499,113.411804 C160.02329,112.791617 163.886724,112.261603 167.730208,111.613195 C170.46096,111.152702 173.172105,110.571062 175.887379,110.021086 C179.175012,109.354781 182.457487,108.664041 185.742369,107.986035 C187.65276,107.591622 189.557648,107.168643 191.476638,106.823445 C192.457975,106.646888 192.603817,106.46448 192.084427,105.610261 C190.963784,103.766911 189.830757,101.931477 188.701171,100.093634 C187.435029,98.0334594 186.167168,95.9746617 184.900338,93.9148316 C183.783135,92.0976381 182.685193,90.268743 181.545631,88.4656603 C180.070702,86.1315303 178.559656,83.819771 177.07028,81.4945894 C176.305642,80.3003353 175.539284,79.1067696 174.8001,77.8970281 C173.593121,75.9222068 172.46835,73.894384 171.200144,71.9601743 C168.960921,68.5443323 166.656,65.1715111 164.348327,61.801099 C162.328555,58.8509129 160.3277,55.8842068 158.208521,53.0056071 C155.806258,49.7422304 153.281198,46.5686809 150.810141,43.3555524 C147.883673,39.5501152 144.970275,35.7346972 142.026951,31.9423383 C140.447112,29.9062555 138.882752,27.8515879 137.188372,25.912904 C135.878202,24.4137194 134.583168,22.9224505 133.590824,21.1902659 C132.281687,18.9056957 130.975301,16.6194047 129.671323,14.3320812 C129.278513,13.643062 128.89671,12.948192 128.607434,12.4309114 C126.812272,12.6893796 125.172926,12.9385554 123.529454,13.1588213 C121.612183,13.4159129 119.696976,13.7724682 117.770763,13.8605746 C115.056178,13.9848183 112.330585,13.8433663 109.613248,13.9256219 C107.169365,13.9992733 104.730985,14.2391566 102.288133,14.3730369 C99.8690153,14.5058848 97.4474896,14.5933028 95.0273398,14.7099749 C92.6938696,14.822517 90.3607434,14.9446957 88.0279612,15.0689394 C87.8769598,15.0771994 87.7290541,15.1384609 87.5016921,15.1938715 M223.656788,112.906225 C223.285304,113.080372 222.911756,113.340217 222.500372,113.434518 C220.40871,113.913597 218.332871,114.459787 216.156938,114.494548 C215.255057,114.509003 214.348361,114.765406 213.459895,114.9781 C211.592843,115.425171 209.741614,115.940043 207.873875,116.382984 C205.510136,116.943629 203.137454,117.466072 200.766491,117.993678 C199.403695,118.296888 198.018197,118.5144 196.678791,118.896768 C196.038325,119.07952 195.484882,119.56204 194.885348,119.897601 C194.635284,120.037677 194.379373,120.21561 194.106951,120.260696 C191.756283,120.649258 189.399423,121.000651 187.047723,121.384052 C184.237515,121.84248 181.425587,122.29196 178.623634,122.798227 C173.927456,123.646939 169.247789,124.592362 164.542669,125.388072 C161.945376,125.827572 159.304743,126.003784 156.695412,126.379957 C155.181614,126.598158 153.698774,127.022514 152.18876,127.272722 C150.388094,127.571114 148.577454,127.824419 146.761997,128.010613 C146.057897,128.082888 145.370996,128.005795 145.159456,128.979439 C143.417609,127.831303 142.711445,126.148334 142.099184,124.295691 C141.750058,124.765477 141.547118,125.0384 141.318724,125.345396 C141.81438,126.051623 142.317259,126.76852 142.820483,127.485417 C142.751689,127.581439 142.68324,127.677461 142.614791,127.773483 C142.094369,127.648551 141.42501,127.685721 141.080355,127.369089 C139.900893,126.286344 138.817054,125.095532 137.731495,123.914012 C136.793842,122.893561 135.903312,121.829402 134.920255,120.701916 C134.920255,121.804622 134.927822,122.823696 134.918535,123.842425 C134.899273,126.013765 134.90684,128.186137 134.836671,130.355756 C134.77235,132.342279 134.590047,134.325016 134.514374,136.311539 C134.39261,139.512622 134.381259,142.718867 134.202397,145.916508 C134.009431,149.370552 133.662713,152.815993 133.411617,156.266939 C133.217964,158.923897 133.045293,161.582919 132.910458,164.242973 C132.856799,165.303347 133.191135,165.442734 134.199301,165.151226 C137.367578,164.236434 140.519001,163.22149 143.73853,162.535913 C147.839989,161.662421 151.910491,160.722849 155.923551,159.49349 C162.701759,157.41714 169.46724,155.295705 176.419839,153.832313 C182.15342,152.625325 187.841598,151.203233 193.576211,150.003817 C197.228105,149.23977 200.93985,148.768607 204.604128,148.058938 C211.487589,146.725641 218.354541,145.30527 225.232155,143.940654 C227.920255,143.407198 230.624865,142.955653 233.310214,142.410495 C234.676105,142.133097 236.002441,141.652298 237.372117,141.402434 C239.475473,141.019378 241.599811,140.751617 243.71727,140.447375 C243.980061,140.409861 244.254546,140.440836 244.522497,140.456323 C244.586474,140.460109 244.646669,140.529975 244.831035,140.647335 C244.340538,140.935746 243.920211,141.182857 243.49954,141.430312 C243.514674,141.50121 243.530153,141.571764 243.545287,141.642662 C244.410363,141.718034 245.277503,141.776542 246.139484,141.87635 C246.59008,141.928319 247.159345,141.918682 247.44071,142.184722 C247.698685,142.42908 247.641931,143.006245 247.720011,143.418555 C246.45387,144.645505 244.816932,144.774567 243.222302,145.05575 C242.449065,145.19204 241.69853,145.454294 240.937331,145.658728 C240.833454,145.686606 240.670413,145.765764 240.631545,145.726185 C239.699051,144.774223 238.922031,145.964347 238.023933,145.944041 C236.483994,145.909281 234.925825,146.237959 233.39139,146.506752 C231.927811,146.763155 230.487967,147.153095 229.03058,147.449077 C228.715162,147.513092 228.36466,147.455272 228.03858,147.401582 C227.589703,147.328275 227.234386,147.295923 226.795828,147.629419 C225.915961,148.298477 224.875118,148.332549 223.875551,148.130524 C223.38471,148.29297 222.905221,148.530789 222.401309,148.605817 C219.409143,149.052544 216.408377,149.443516 213.416899,149.894716 C212.493004,150.034103 211.596627,150.352112 210.673764,150.504233 C208.434541,150.872835 206.183623,151.171226 203.944055,151.539483 C202.569564,151.7656 201.211928,152.093589 199.838813,152.327966 C198.498718,152.556836 197.136266,152.666281 195.805459,152.935418 C194.482219,153.203523 193.19716,153.66023 191.874951,153.935563 C189.932571,154.340301 187.963362,154.615634 186.02167,155.022437 C183.590169,155.531802 181.178963,156.137533 178.750214,156.661009 C177.886169,156.847547 176.983601,156.857183 176.12162,157.050604 C175.083184,157.283948 174.073642,157.645322 173.043118,157.919622 C170.720999,158.537743 168.39028,159.124201 166.069193,159.746452 C164.400266,160.193867 162.740971,160.678452 161.077548,161.145829 C158.294169,161.927428 155.51939,162.739659 152.725348,163.479614 C150.576588,164.048864 148.413037,164.568898 146.239512,165.031801 C144.567834,165.387668 142.858663,165.569043 141.187673,165.928007 C140.22491,166.134851 139.315462,166.578824 138.36233,166.847273 C137.055601,167.21553 135.736488,167.546273 134.409121,167.828489 C134.103678,167.893536 133.742857,167.696329 133.338352,167.604093 C132.559956,168.529554 132.753265,169.718301 132.706141,170.834086 C132.586785,173.64695 132.517992,176.461879 132.423745,179.275775 C132.37043,180.874424 132.360111,182.476514 132.235939,184.069656 C132.031623,186.688066 131.748882,189.300626 131.50157,191.915595 C131.395972,193.031035 131.284183,194.146476 131.196472,195.263637 C131.064732,196.936625 130.900316,198.609613 130.847689,200.285699 C130.807789,201.552916 130.910979,202.825295 130.969454,204.094233 C131.0238,205.275065 131.116671,206.454176 131.166546,207.635007 C131.189936,208.190146 131.304133,208.366015 131.946319,208.204257 C136.261381,207.116694 140.595018,206.104848 144.91352,205.031396 C148.008189,204.261842 151.07706,203.386973 154.178264,202.646674 C157.547761,201.842359 160.941681,201.140261 164.324594,200.391702 C167.668294,199.651746 171.025065,198.96548 174.351911,198.156691 C181.465143,196.427604 188.560832,194.627275 195.667184,192.870999 C199.291906,191.975136 202.931761,191.141567 206.550635,190.223334 C209.521132,189.469956 212.456544,188.576158 215.4322,187.846527 C219.290818,186.900761 223.168699,186.029334 227.050707,185.183719 C228.330264,184.904945 229.656599,184.84747 230.94785,184.612749 C231.968743,184.427588 232.968655,184.126099 234.135734,183.837344 C234.013969,184.279253 233.953431,184.499518 233.843018,184.900471 C234.2802,184.750071 234.601465,184.590034 234.93924,184.538753 C235.20547,184.498142 235.492338,184.591755 235.76992,184.625483 C235.667761,184.905978 235.571451,185.188538 235.462069,185.465935 C235.396716,185.631823 235.340305,185.815607 235.22714,185.945357 C235.078546,186.115719 234.889709,186.259236 234.696399,186.379006 C234.568788,186.458164 234.39818,186.464359 234.254746,186.522179 C233.231445,186.933112 232.219495,187.375021 231.185187,187.755323 C230.326646,188.070923 229.455723,188.37723 228.565881,188.578223 C227.223723,188.881433 225.863678,189.112024 224.504666,189.331601 C223.133614,189.553244 221.744333,189.605557 220.448954,190.2519 C219.898951,190.526544 219.166302,190.409183 218.540627,190.565778 C217.886058,190.729601 217.266918,191.029025 216.619917,191.230362 C216.217132,191.356326 215.755528,191.558007 215.384388,191.466115 C214.630757,191.279922 214.00749,191.568332 213.329187,191.740071 C211.967767,192.084925 210.582957,192.338575 209.223257,192.688935 C207.700172,193.081628 206.203229,193.577914 204.677393,193.958905 C203.034607,194.369151 201.361897,194.658938 199.720144,195.071936 C197.726857,195.57373 195.755584,196.161564 193.768488,196.688826 C191.894214,197.186145 190.008932,197.642164 188.133969,198.13673 C186.661792,198.524948 185.205093,198.971331 183.729132,199.341997 C182.17337,199.732625 180.602818,200.064744 179.038458,200.420267 C177.396705,200.792999 175.758391,201.183626 174.111135,201.529857 C171.943112,201.985532 169.761675,202.375815 167.597781,202.849043 C165.700804,203.264106 163.821714,203.760737 161.932305,204.211938 C155.604693,205.722824 149.274674,207.225106 142.94775,208.740123 C140.057742,209.432239 137.180804,210.184929 134.279445,210.824733 C133.550924,210.985114 132.912865,211.141365 132.600544,211.845527 C132.444383,212.197953 132.442319,212.618523 132.36699,213.007086 C132.190879,213.91465 131.948383,214.814298 131.850008,215.729778 C131.71311,217.007665 131.609576,218.297941 131.623678,219.581334 C131.649132,221.853858 130.972205,223.873765 129.667196,225.702316 C129.574669,225.832411 129.318413,225.982123 129.207312,225.93979 C128.523162,225.680634 128.309559,226.142504 128.124505,226.665291 C127.0159,226.185869 126.75311,225.18125 126.786474,224.275062 C126.862835,222.201465 127.154519,220.135784 127.357803,218.067006 C127.607179,215.534981 127.855523,213.002612 128.086669,210.649208 C127.288322,210.243781 126.626186,209.931623 125.988128,209.5761 C125.465298,209.284592 125.212827,209.38853 125.136122,209.993229 C124.881243,212.00522 124.489809,214.012049 124.41448,216.030579 C124.343279,217.94173 124.01823,219.810892 123.831112,221.700705 C123.74684,222.550793 123.454813,223.378511 123.327545,224.226879 C123.265975,224.638157 123.35919,225.074214 123.394619,225.497882 C123.443118,226.076424 123.461004,226.662194 123.566946,227.230755 C123.77539,228.348948 124.035773,229.457849 124.320233,230.784263 C124.108006,231.053056 122.909969,230.959787 123.421448,232.116871 C122.90653,232.065247 122.46694,232.021538 121.973348,231.971978 C121.900771,232.127885 121.838169,232.335072 121.717437,232.498895 C121.594297,232.665815 121.392732,232.929446 121.261681,232.909484 C120.594386,232.809332 119.750979,232.827917 119.330652,232.425932 C118.883495,231.998479 118.839123,231.147702 118.626208,230.479677 C118.614857,230.443539 118.700849,230.349582 118.692594,230.343043 C117.981614,229.765877 118.48071,228.967414 118.311822,228.297323 C118.015667,227.123719 118.143967,225.969044 118.327301,224.798882 C118.524738,223.537516 118.638247,222.262727 118.823989,220.999295 C118.91686,220.367408 119.123584,219.752384 119.219207,219.12084 C119.473398,217.445443 119.72243,215.767981 119.922275,214.085356 C120.158924,212.089885 120.411051,210.09166 120.522497,208.086897 C120.59473,206.789049 120.389725,205.478467 120.379062,204.172703 C120.370807,203.202501 120.445448,202.228168 120.551734,201.263129 C120.576499,201.039765 120.918746,200.868371 121.044982,200.635371 C121.188072,200.370019 121.345265,200.059582 121.336322,199.773925 C121.291606,198.339787 121.095889,196.904273 121.138197,195.47461 C121.206302,193.171455 121.408899,190.872086 121.575035,188.572372 C121.722596,186.533536 121.942735,184.49883 122.050397,182.457929 C122.20071,179.596882 122.196926,176.72551 122.408466,173.869625 C122.59008,171.41779 122.985642,168.981787 123.276982,166.537524 C123.384988,165.630304 123.497809,164.721363 123.538397,163.810357 C123.551123,163.521947 123.35575,163.213919 123.221259,162.931359 C123.017975,162.504938 122.928888,162.169032 123.429359,161.833127 C124.18299,161.327548 123.867917,160.447517 123.96354,159.750582 C124.348094,156.956647 124.656288,154.150666 124.930086,151.342965 C125.106885,149.529901 125.185309,147.706857 125.289531,145.887254 C125.466674,142.804564 125.647945,139.72153 125.791379,136.63712 C125.890097,134.516372 125.868427,132.389086 126.006358,130.271436 C126.191068,127.440331 126.491351,124.616798 126.716993,121.788102 C126.896544,119.53726 127.002141,117.279535 127.213681,115.03179 C127.311024,113.996885 127.51706,112.959226 127.802896,111.959425 C127.960089,111.409449 127.907118,111.047731 127.602363,110.570374 C126.157015,108.306453 124.829648,105.964752 123.3358,103.734216 C121.900771,101.591786 120.53316,99.3340606 118.740061,97.5178996 C116.160999,94.9060281 114.683318,91.6698405 112.918768,88.5905923 C111.044494,85.3186115 109.345986,81.9461344 107.531562,78.6390487 C105.827207,75.5329557 104.010031,72.4877799 102.35727,69.3551861 C100.95767,66.7027031 99.7702968,63.9390547 98.3992455,61.27074 C97.308527,59.148616 96.0547684,57.1108124 94.92243,55.0093383 C93.4708904,52.3155554 92.1356117,49.5570694 90.6297254,46.8949498 C88.1686436,42.5436662 85.5957725,38.2560532 83.1020139,33.9233545 C82.3800277,32.6688715 81.7694868,31.3507179 81.1032233,30.0642275 C80.9594452,29.786486 80.7957171,29.5190694 80.5886491,29.1549424 C80.3186352,29.4006765 80.1418363,29.5989158 79.9296089,29.7458744 C79.5725714,29.9926411 79.1780416,30.186062 78.8268516,30.4400561 C78.4825409,30.6888877 78.0054591,30.9246411 77.8809431,31.271904 C77.5796283,32.1127001 76.9594563,32.5174387 76.2419417,32.8915465 C76.105043,32.9631329 76.0458807,33.2154062 75.9853426,33.3957489 C75.8811207,33.7068744 75.9055423,34.1732186 75.6974424,34.3188006 C74.6304577,35.0646071 73.4891761,35.703034 72.4070569,36.4285347 C71.3565825,37.1330414 70.3380971,37.8860753 69.3216755,38.6397976 C68.7424355,39.0689719 68.2247656,39.5865968 67.6231678,39.978257 C67.290208,40.1950812 66.8234452,40.1937046 66.4488655,40.3616573 C65.3746574,40.8431448 64.0159889,40.6600487 63.2276172,41.8319321 C62.8066019,42.4576248 62.2390569,42.9848863 61.7375534,43.5565451 C61.7196671,43.5768508 61.700061,43.6109232 61.680111,43.6116115 C60.0975201,43.6649572 59.3899806,45.3076588 57.9408488,45.6501034 C56.6465021,45.9564106 55.4089098,46.4643988 54.4616255,47.4645436 C53.7619972,48.2034668 53.1125881,48.9909173 52.4060804,49.7233013 C51.7442885,50.4095672 51.0384688,51.0535007 50.3495035,51.7132659 C49.8651983,52.1775451 49.4118502,52.6827799 48.8838613,53.0913043 C46.6814424,54.7962999 45.208233,57.1479823 43.3951845,59.1981758 C42.9531872,59.6975598 42.4107517,60.107805 41.9150957,60.5596942 C41.1026463,61.3006824 40.2888211,62.0406381 39.4787795,62.7843796 C39.1647379,63.0727903 38.8613592,63.3729025 38.5486935,63.6626898 C37.4332094,64.6951861 36.3610652,65.7813722 35.185043,66.7391846 C34.2711234,67.4832703 33.4098308,68.2400901 32.7315284,69.2140783 C32.4305576,69.6463501 32.0594175,69.4808065 31.7154508,69.1376736 C30.9559723,68.3798213 30.7592233,68.4434919 30.0018086,69.2213058 C29.4848266,69.752353 28.7896699,70.1078759 28.2664965,70.6341049 C26.9384411,71.9694668 25.6564771,73.3509468 24.3676338,74.7248552 C23.477104,75.6737194 22.4778807,76.5568479 21.7713731,77.6302999 C21.307362,78.3354948 21.1233398,79.3208405 21.0861914,80.1926115 C21.0019196,82.167777 21.0724327,84.150514 21.1064854,86.1298095 C21.1309071,87.5653235 21.2729653,89.0029025 21.2162108,90.4335982 C21.1852538,91.2076263 20.8027628,91.9610044 20.6576089,92.7384742 C20.3631734,94.3168168 20.0666741,95.8986012 19.8726768,97.4913988 C19.6319001,99.4662201 19.4495978,101.450678 19.3288655,103.436513 C19.2556006,104.642812 19.3845881,105.86047 19.3484716,107.0709 C19.3278336,107.75751 19.126613,108.436892 19.0609154,109.124535 C18.9752677,110.016612 18.9319279,110.913162 18.8971872,111.809025 C18.889276,112.010362 19.0151678,112.213419 19.0361498,112.420263 C19.0674508,112.725194 19.0726103,113.034942 19.0612594,113.34125 C19.0578197,113.432109 18.9016588,113.530196 18.9157614,113.606257 C19.1771761,115.019056 18.6540028,116.360269 18.5759223,117.721443 C18.5088488,118.894359 18.2780472,120.024942 18.1538752,121.176864 C18.0640999,122.006647 17.8814535,122.826105 17.7648488,123.653479 C17.6898641,124.185558 17.6262302,124.723489 17.6152233,125.260043 C17.5866741,126.64462 17.6121276,128.030575 17.5753232,129.414808 C17.5371429,130.841718 17.4779806,132.269316 17.3775423,133.692784 C17.2746963,135.148948 17.0800111,136.598917 16.987828,138.055425 C16.9479279,138.687313 17.1054646,139.330214 17.0920499,139.966232 C17.0844827,140.321411 16.8419861,140.669018 16.822724,141.026261 C16.7367323,142.622157 16.6933925,144.220461 16.6342302,145.817733 C16.5764438,147.385062 16.5076505,148.951703 16.4636227,150.519032 C16.419939,152.078446 16.130319,153.695679 16.4436727,155.182818 C16.8038058,156.892288 15.7970153,158.19048 15.6391345,159.719607 C15.5242497,160.829885 14.9941969,161.911941 14.5425687,162.960957 C14.4469459,163.183632 13.8618585,163.345734 13.5512566,163.284817 C13.2251761,163.221146 12.7646047,162.898663 12.7020028,162.614727 C12.5197004,161.78873 12.420294,160.922809 12.4436838,160.077195 C12.5338031,156.820013 12.6975312,153.564897 12.8065687,150.308403 C12.8688266,148.444747 12.8247989,146.575929 12.926957,144.715027 C13.0239556,142.949802 13.267484,141.192838 13.4147018,139.429678 C13.6104189,137.081093 13.7500693,134.728034 13.9588571,132.380826 C14.3035118,128.497951 14.6787795,124.617486 15.0512954,120.737021 C15.3099584,118.042894 15.613337,115.352897 15.8451706,112.65636 C16.1041775,109.641471 16.2734092,106.618666 16.5413592,103.604809 C16.7453315,101.306817 17.0690042,99.0194934 17.2846713,96.7225332 C17.3716949,95.7925982 17.2471789,94.8427016 17.3338585,93.9124225 C17.5392067,91.7028804 17.866319,89.5036632 18.0441498,87.2920561 C18.2013426,85.3371965 18.2443384,83.372356 18.2924938,81.410613 C18.3079723,80.7766603 17.9653814,80.6217858 17.4824521,81.0251477 C16.4577753,81.8810871 15.4592399,82.769034 14.4727434,83.6686824 C14.3162386,83.8115111 14.2003218,84.0844343 14.197914,84.2988493 C14.1721165,86.6088877 14.2364383,88.9220236 14.1452871,91.2289645 C14.0802774,92.873387 13.805448,94.5088612 13.6444716,96.1505303 C13.463889,97.9921595 13.3039445,99.8358538 13.1391845,101.67886 C13.0119168,103.101984 12.8626352,104.523731 12.7804272,105.949264 C12.7436227,106.5901 12.8767379,107.239196 12.8777698,107.884851 C12.8788017,108.470276 12.8192954,109.056734 12.7621969,109.640783 C12.5482497,111.837591 12.3030014,114.031645 12.1127878,116.230863 C12.007534,117.449208 11.9989348,118.675814 11.9208544,119.897257 C11.9060638,120.127848 11.769853,120.350179 11.8369265,120.610712 C11.7715728,120.927 11.6525603,121.242944 11.6522164,121.558888 C11.6515284,122.19938 11.790147,122.846411 11.7358003,123.478987 C11.6240111,124.778555 11.4221026,126.070208 11.2614702,127.365647 C11.2487434,127.469241 11.2415201,127.585913 11.2759168,127.680903 C11.810785,129.159093 11.2095312,130.599425 11.1280111,132.055589 C11.0626574,133.218524 10.9377975,134.378018 10.849742,135.539576 C10.7197226,137.251799 10.592111,138.964022 10.4768821,140.677278 C10.4335423,141.322932 10.4761942,141.977191 10.3946741,142.61665 C10.2003329,144.139926 9.95749237,145.656663 9.73047434,147.175465 C9.53922885,148.453007 9.33560055,149.729173 9.15192233,151.008092 C9.08416089,151.479254 9.04150902,151.955579 9.01708738,152.431216 C8.97787517,153.189756 8.948638,153.949674 8.9434785,154.709247 C8.93763107,155.555549 8.98337864,156.402541 8.96755617,157.248155 C8.95861304,157.741688 8.93694313,158.250365 8.81036338,158.722904 C8.36905409,160.372489 8.9114896,161.983871 8.9249043,163.611774 C8.9321276,164.508669 9.11374202,165.458566 8.44885437,166.285595 C8.00857698,166.833507 8.31333148,167.345625 9.01364771,167.81369 C8.41824133,168.031202 7.99585021,168.256975 7.54766158,168.3351 C6.59005825,168.502021 6.03180028,167.940687 6.07789182,166.834195 C6.20550347,163.766993 6.37370319,160.701855 6.54637448,157.636718 C6.72145354,154.530625 6.92301803,151.425908 7.10944799,148.320504 C7.18512067,147.063612 7.21951734,145.803622 7.33130652,144.550171 C7.450319,143.219284 7.65738696,141.896656 7.79359778,140.567489 C8.28168655,135.801142 8.81105132,131.037892 9.21761997,126.264662 C9.52031068,122.707368 9.63313176,119.134242 9.87803606,115.571442 C10.0152788,113.576315 10.2333537,111.58635 10.4428294,109.597074 C10.6987406,107.170363 10.9752899,104.745374 11.2594064,102.321417 C11.5246047,100.058529 11.8496533,97.801836 12.0787351,95.5355066 C12.3143523,93.2037858 12.4595062,90.8631167 12.6572871,88.52761 C12.7253925,87.7226071 12.8430291,86.9220783 12.9149182,86.1174195 C12.9324605,85.9243427 12.8578197,85.7230059 12.8254868,85.5254549 C12.6008766,85.5746706 12.3184799,85.554709 12.161975,85.6854919 C11.6264189,86.1329069 11.1613759,86.665675 10.6210042,87.1068951 C9.36586963,88.1311315 7.91673786,88.2495244 6.39468516,88.0127386 C6.39468516,87.8692216 6.37542302,87.8062393 6.39778086,87.7683811 C6.55531761,87.5044062 6.72110957,87.2455938 6.88414979,86.9850606 C6.60484882,87.0435687 6.29837448,87.0480428 6.05037448,87.1705657 C5.20559223,87.5876942 4.52075451,87.2817312 3.9690319,86.6770325 C3.0048932,85.6201004 2.07962275,84.5259985 1.18393343,83.4102142 C0.950380028,83.1193944 0.886746186,82.6919409 0.7450319,82.3271256 C0.827239945,82.2889232 0.909447989,82.2507208 0.991656033,82.2125185 C1.32358391,82.6537386 1.65516782,83.0949586 1.98675173,83.5358346 C2.03146741,83.5079572 2.07652705,83.4800798 2.12124272,83.4522024 C1.86189182,82.7841773 1.58293481,82.1230355 1.34972538,81.446062 C1.19253259,80.9886662 0.955539528,80.9442688 0.54828294,81.131839 C0.403472954,81.1986071 0.185054092,81.1053383 0,81.0850325 C0.0546907074,80.8964298 0.0512510402,80.6503516 0.172327323,80.528517 C1.13543412,79.5627888 2.11849098,78.6170222 3.10223578,77.6719439 C4.64045492,76.1934092 6.20894313,74.745161 7.70726214,73.2277356 C8.07633842,72.8539719 8.12930929,72.1721802 8.49185021,71.7870591 C9.702957,70.501257 10.9862968,69.2835997 12.2465908,68.04426 C13.1821803,67.1243058 14.1033232,66.1874874 15.0705576,65.3016056 C16.0209376,64.4315554 16.9613426,63.5298419 18.0149126,62.7991787 C19.3329931,61.8850753 20.5127989,60.8838981 21.4050485,59.5323604 C21.6214036,59.2050591 22.1215312,59.0642954 22.4930153,58.8409321 C22.6932039,58.7208183 22.9308849,58.6430369 23.094613,58.4864417 C24.4529376,57.1885938 25.7947517,55.8731935 27.1479168,54.569839 C29.0741304,52.7147873 30.9600999,50.8153383 32.9458197,49.0263663 C35.6174092,46.6196174 38.3319945,44.2569217 41.0950791,41.9558316 C43.4629459,39.984452 45.9401942,38.1448877 48.3403939,36.2113663 C50.1799279,34.7297341 51.987129,33.2064579 53.7871068,31.6766425 C56.5058197,29.3655716 59.2114619,27.0393575 61.9112566,24.70626 C63.2303689,23.566384 64.4882552,22.3525126 65.8376366,21.2501507 C67.6204161,19.7939867 69.4726768,18.4228316 71.2826297,16.9997075 C73.8355506,14.9928789 76.373681,12.9674653 78.9283218,10.9627016 C79.2337642,10.7228183 79.6014646,10.5627814 80.0861137,10.2809099 L80.0861137,11.9019291 C80.5257032,11.5281654 80.7926214,11.2913796 81.0705465,11.0676721 C81.4956893,10.7255716 81.9081054,10.4547134 82.5007601,10.805418 C82.707828,10.9279409 83.0634896,10.7944047 83.3513897,10.7864889 C84.1789736,10.763774 85.0065576,10.7469099 85.8341415,10.7255716 C87.3672011,10.6863368 88.9023245,10.6839276 90.4326325,10.5975421 C94.8120166,10.3507755 99.1914008,10.0902422 103.567689,9.79288331 C105.724361,9.64626883 107.871401,9.35579321 110.02876,9.22501034 C111.763384,9.11969572 113.506607,9.16030724 115.246047,9.12829985 C115.564904,9.12244904 115.882386,9.0670384 116.201243,9.05327179 C117.263756,9.00784195 118.330397,9.0133486 119.388094,8.91767061 C120.235284,8.84126588 121.069748,8.63132496 121.913842,8.50673708 C123.532549,8.26788626 125.154352,8.04934121 126.774436,7.8184062 C127.145576,7.76574889 127.492638,7.70448744 127.281786,7.16242688 C127.235351,7.04231315 127.34886,6.74220089 127.459273,6.69711521 C128.308871,6.34916396 128.991645,5.63261152 129.99534,5.61574742 C131.097065,5.59681832 132.204294,5.5641226 133.297764,5.43815805 C135.408688,5.19483309 137.515484,4.9108966 139.616089,4.59082275 C142.56182,4.14168685 145.492416,3.59205465 148.443307,3.18284195 C150.992788,2.82903988 153.557748,2.57848744 156.121675,2.34273412 C158.341637,2.13898818 160.571917,2.05225849 162.792566,1.85539586 C165.487545,1.61654505 168.174957,1.29234121 170.869592,1.05108124 C172.762097,0.881407681 174.661825,0.791924668 176.55777,0.660453471 C177.753054,0.577509601 178.952122,0.519689808 180.141215,0.382367799 C181.006635,0.282559823 181.770585,0.396478582 182.49154,0.918921713 C182.6962,1.06691285 183.052205,1.05968538 183.332882,1.03903545 C185.419728,0.886225997 187.503135,0.682480059 189.591356,0.553418021 C191.231734,0.451889217 192.87727,0.407836041 194.521087,0.386153619 C196.761687,0.356555391 199.028427,0.167952733 201.235662,0.439843427 C202.728133,0.623971935 204.196183,0.301833087 205.683839,0.609172821 C206.615645,0.8015613 207.64101,0.494221566 208.625098,0.490091581 C209.74987,0.485273264 210.874641,0.583360414 212.0001,0.605731167 C212.416988,0.613991137 212.838347,0.554450517 213.252139,0.488714919 C213.766369,0.40714771 214.276816,0.192732644 214.784854,0.2051226 C215.586985,0.225084195 216.384644,0.393036928 217.186086,0.479422452 C217.302003,0.491812408 217.440621,0.419881832 217.548971,0.353802068 C218.268893,-0.0843205318 218.980904,-0.00103249631 219.683628,0.163134417 C220.330286,0.108756278 220.976943,0.0540339734 221.619473,0 C221.814158,0.299768095 221.998868,0.583704579 222.184266,0.869017725 C221.9201,1.93042393 221.19605,2.73542688 220.263212,3.12364549 C219.380594,3.49121418 218.33975,3.55247563 217.360821,3.60203545 C214.575379,3.74279911 211.785809,3.80233973 208.998302,3.9062777 C206.365581,4.00470901 203.733548,4.12792024 201.100827,4.22256573 C199.408854,4.28348301 197.715162,4.36264106 196.023534,4.34130281 C194.356327,4.32030871 192.689121,4.09109453 191.024666,4.11966027 C188.981503,4.15442097 186.941781,4.36539439 184.899994,4.49135894 C184.416377,4.52130133 183.928976,4.49583309 183.446047,4.53506795 C183.224189,4.55296455 183.009897,4.66516248 182.792166,4.73433973 C182.918746,4.93498818 183.045326,5.13563663 183.221437,5.41441064 C183.031567,5.92411965 182.573404,6.18017873 181.984877,6.28514919 C181.126336,6.43864697 181.049631,6.67267947 181.576588,7.37856278 C183.205614,9.56091581 184.856655,11.7281256 186.441653,13.9421418 C187.950979,16.0511876 189.376721,18.219774 190.861969,20.3463722 C191.565725,21.3534003 192.355473,22.3008877 193.046502,23.3161758 C193.812516,24.4426292 194.481187,25.6351625 195.246513,26.7623043 C195.905897,27.7338833 196.677759,28.6294018 197.334391,29.6027016 C198.276172,30.9989808 199.154319,32.4379365 200.069614,33.8521123 C200.313143,34.2282851 200.595196,34.5793338 200.857298,34.943805 C201.713431,36.1349616 202.573692,37.323709 203.422946,38.5196839 C203.940616,39.2489705 204.307628,40.1620414 204.980427,40.6868936 C206.081809,41.5459306 206.54066,42.8090177 207.351046,43.839449 C209.505653,46.5779734 211.578397,49.3808567 213.665243,52.1723826 C214.238979,52.9395273 214.694391,53.7992526 215.300117,54.5378316 C215.979451,55.3652053 216.81357,56.0652378 217.497376,56.8898582 C218.416799,57.9984151 219.268117,59.1647917 220.127689,60.3218759 C220.917437,61.3853471 221.644926,62.4963131 222.461503,63.5377578 C223.793343,65.2365583 225.182968,66.8895849 226.53063,68.5759956 C226.836072,68.9580192 227.05965,69.4040576 227.339639,69.8074195 C227.612405,70.1997681 227.900649,70.5824801 228.19818,70.9562437 C228.604405,71.4659527 229.035051,71.9563885 229.438524,72.4685066 C229.949315,73.1165702 230.385809,73.8341551 230.959545,74.418548 C231.643007,75.1158272 232.362241,75.7397991 232.7523,76.6893516 C232.911212,77.0755052 233.4478,77.2892319 233.743612,77.6392482 C234.892804,78.9976691 235.964261,80.4256115 237.164361,81.7358493 C237.912832,82.5528981 238.711523,83.2859705 239.059961,84.3914298 C239.114996,84.5655775 239.577631,84.6110074 239.906463,84.7369719 C239.958058,85.2453043 240.101836,85.6813619 240.727856,86.0324106 C241.223856,86.3104963 241.454657,87.0624978 241.80344,87.60387 C241.873953,87.7136588 241.945842,87.8231034 242.041809,87.9707504 C242.199345,87.8602733 242.331085,87.7680369 242.391967,87.7253604 C242.89863,88.3754889 243.377087,88.9715835 243.831123,89.5855746 C243.930874,89.7208316 243.964239,89.9170059 243.992444,90.0908095 C244.057798,90.491418 244.094946,90.8965007 244.158924,91.2974535 C244.169587,91.3628449 244.266929,91.4719453 244.311645,91.4660945 C245.232444,91.3404742 245.43332,91.8419232 245.43676,92.727805 C245.501426,92.5326632 245.566092,92.3378656 245.630757,92.1427238 C245.747706,92.1788612 245.864999,92.2149985 245.981947,92.2507917 C246.077914,92.6042496 246.173537,92.9577075 246.269503,93.3108213 C246.203118,93.3225229 246.136388,93.3342245 246.070003,93.345582 C246.439423,93.605771 246.808499,93.8663043 247.29934,94.2121905 C247.094336,94.5467194 246.893459,94.8826248 246.685703,95.213712 C246.211373,95.9694993 246.261592,96.5301448 246.855279,97.2401581 C246.953997,97.3578626 247.008,97.5134254 247.11635,97.7147622 C246.28395,98.1105524 245.219029,97.3365244 244.520089,98.3600724 C245.370031,99.3405997 244.595074,100.302542 244.297886,101.263108 C244.008266,102.198205 243.538064,103.077548 243.142846,103.97995 C243.006979,104.290387 242.858386,104.595318 242.677459,104.984913 C243.525337,105.348696 244.284472,105.67462 245.064932,106.009493 C245.191512,106.48513 245.341825,107.05025 245.511745,107.688332 C244.831379,107.822213 244.184721,107.93682 243.544599,108.081369 C243.295567,108.137812 242.882119,108.230393 242.859761,108.360832 C242.819517,108.597962 242.993908,108.886372 243.11808,109.133139 C243.233653,109.362697 243.400821,109.566099 243.545287,109.781202 C243.295567,109.925408 243.062358,110.13053 242.793376,110.203149 C241.905598,110.442344 240.94937,110.930371 240.121098,110.77584 C238.76071,110.522535 237.536877,110.99473 236.249409,111.045666 C235.480988,111.076297 234.721165,111.279355 233.952743,111.358857 C232.961087,111.461418 231.96324,111.504783 230.970896,111.602526 C230.633121,111.635566 230.307728,111.781148 229.970297,111.832773 C229.159223,111.957016 228.333703,112.005888 227.533637,112.177282 C226.40405,112.41923 225.294757,112.75548 224.169986,113.022208 C224.00385,113.061787 223.800222,112.941674 223.656788,112.906225" id="Fill-32"></path>
                <path d="M207.591031,12.1561985 C207.416984,11.9483226 207.148002,11.5298174 206.780646,11.2338352 C206.618981,11.1040848 206.209317,11.1326505 205.994338,11.2455368 C205.177417,11.6750552 204.65218,12.8651793 204.952119,13.7152679 C205.05978,14.0198544 205.463941,14.4149563 205.745306,14.4252812 C206.521295,14.4541911 207.56489,13.2358455 207.591031,12.1561985 M209.278876,12.8995959 C209.244823,14.9112428 208.502887,15.4725767 206.759664,16.1588425 C205.745306,16.5580744 204.892612,16.0256505 204.068812,15.4877199 C203.211991,14.9281069 202.58666,14.2246328 202.33006,13.1917923 C202.003636,11.8770804 202.674027,10.0605752 203.838355,9.31889867 C203.94808,9.24903309 204.108024,9.14647179 204.201927,9.17985583 C205.568163,9.66237578 206.957789,10.0960242 208.276901,10.6873004 C209.200452,11.1013315 209.340102,12.0316106 209.278876,12.8995959" id="Fill-34"></path>
                <path d="M159.772435,97.5494595 C159.843636,97.5966102 159.914837,97.644105 159.986038,97.6912557 C160.262931,97.3040696 160.508524,96.8886619 160.823597,96.5355482 C161.392862,95.8974654 162.017506,95.3089425 162.584707,94.6694832 C162.707159,94.531817 162.787991,94.2055482 162.709567,94.067882 C162.376607,93.4828007 161.976574,92.936266 161.600962,92.3756205 C161.475758,92.3883547 161.350554,92.4010888 161.22535,92.4138229 C160.741045,94.1257018 160.25674,95.8375806 159.772435,97.5494595 M166.22525,89.6666944 C166.615653,87.6643399 163.150876,85.9469544 161.799087,86.5327239 C161.596146,86.6208303 161.426915,87.0052631 161.415908,87.2599455 C161.404557,87.5297712 161.546615,87.8481242 161.714815,88.0769942 C162.620823,89.3108273 162.886022,90.7886737 163.355536,92.1918362 C163.45907,92.5005526 163.676113,92.8240681 163.934776,93.0088849 C164.087153,93.1176412 164.464485,93.0357298 164.670177,92.9169928 C165.025839,92.7118702 165.34676,92.4324078 165.642571,92.1433089 C165.819026,91.970882 166.000984,91.7347845 166.04054,91.5035053 C166.143386,90.8984625 166.169872,90.2799972 166.22525,89.6666944 M166.996768,95.9549411 C165.474371,95.2728052 164.590377,96.2096235 163.513073,97.124071 C161.875103,98.5138111 160.5099,100.111771 159.157422,101.747245 C158.332934,102.743948 157.830399,102.623146 156.756535,102.009844 C155.473883,101.277804 155.826449,100.304848 156.112973,99.3804196 C156.539492,98.0034137 157.156568,96.6866368 157.663919,95.3333783 C157.963514,94.5345703 158.086654,93.6445585 158.50595,92.9218111 C159.111675,91.8779573 158.769428,90.5061139 159.747669,89.6143812 C159.852579,89.5190474 159.829533,89.212396 159.776907,89.0296442 C159.657894,88.6180223 159.485911,88.2218879 159.32975,87.8216235 C158.793162,86.4459942 159.156391,85.5377417 160.449705,84.8576708 C162.068757,84.0065496 163.648252,84.184139 165.099447,85.1447047 C166.118965,85.819269 167.105805,86.6122261 167.904152,87.529427 C168.510565,88.2260179 169.058504,89.1710962 169.160318,90.0597313 C169.289994,91.1882498 169.757101,92.1381464 170.128585,93.1465511 C170.502821,94.1625275 170.16195,95.0745659 169.135897,95.4276796 C168.458282,95.6606796 167.740424,95.7763192 166.996768,95.9549411" id="Fill-38"></path>
                <path d="M117.514542,30.4196815 C116.985177,30.193909 116.359158,30.0803344 115.944334,29.7220582 C114.516184,28.4885693 113.22115,27.1229208 112.602009,25.2716549 C112.403885,24.6793462 112.821804,24.4053905 113.275496,24.3389666 C113.96343,24.2381261 114.60252,24.1665397 115.118126,23.5893743 C115.268095,23.4217657 115.801244,23.4317465 116.06369,23.5580552 C117.399657,24.2009563 118.394753,25.2410242 119.173837,26.4858706 C119.43938,26.9102266 119.724872,27.3559208 119.844573,27.8315575 C120.220872,29.3290213 119.659174,30.0868736 118.141249,30.2445013 C117.954131,30.2637746 117.765294,30.2634304 117.577144,30.2723787 L117.514542,30.4196815 Z" id="Fill-40"></path>
                <path d="M208.337783,87.9550564 C208.498072,87.7007182 208.658704,87.4467241 208.818993,87.1923858 C208.586815,87.0464597 208.354637,86.9005335 208.057794,86.7139959 C207.998288,86.212891 208.296507,86.0958747 208.780812,86.2142677 C210.091669,86.535374 211.271819,87.1039353 212.304407,87.9939471 C212.581644,88.2327979 212.972047,88.3845749 213.335275,88.4695838 C213.856385,88.5910742 214.171115,88.7745143 214.052446,89.3867846 C214.009794,89.6070505 214.077212,89.8572588 214.129495,90.0857846 C214.341034,91.008148 214.175586,91.5395394 213.314981,91.9150239 C212.488085,92.2757093 211.600995,92.5231643 210.718721,92.7238127 C209.861556,92.9189545 209.092102,92.5654966 208.550011,91.9253489 C207.861389,91.1117418 207.227802,90.2392824 206.664385,89.3337832 C206.094776,88.4183031 206.211381,88.0555527 207.141467,87.6573533 C207.429711,87.5341421 207.833184,87.6804124 208.18403,87.7027832 C208.235281,87.7871037 208.286532,87.8710801 208.337783,87.9550564" id="Fill-42"></path>
                <path d="M162.740868,17.4333904 C162.19568,18.1471895 162.021977,19.0643904 162.424762,19.2523047 C162.665195,19.3645027 163.118543,19.2836238 163.34109,19.1129177 C163.760729,18.7918114 163.498282,18.0993505 162.740868,17.4333904 M161.392518,14.3599931 C163.065228,14.3861496 164.192751,15.5280905 165.215708,16.7842944 C166.10727,17.8794288 166.15233,19.2832796 165.424496,20.2231954 C164.841472,20.9762294 163.087242,21.3128232 162.061189,20.6251806 C161.197833,20.0469827 160.515403,19.1759 159.826438,18.3715854 C159.613178,18.1227538 159.397855,17.6584746 159.936851,17.3373682 C160.042449,17.274386 160.006332,16.8858232 159.955769,16.6662456 C159.822998,16.0918335 160.009084,15.6864066 160.467248,15.3315721 C160.770282,15.0968513 161.005212,14.7736799 161.392518,14.3599931" id="Fill-44"></path>
            </g>
        </g>
    </g>
</svg>