<?xml version="1.0" encoding="UTF-8" standalone="no"?>
<svg width="150px" height="56px" viewBox="0 0 150 56" version="1.1" xmlns="http://www.w3.org/2000/svg" xmlns:xlink="http://www.w3.org/1999/xlink">
    <!-- Generator: Sketch 3.7.2 (28276) - http://www.bohemiancoding.com/sketch -->
    <title>yoomee_logo_black</title>
    <desc>Created with Sketch.</desc>
    <defs>
        <polygon id="path-1" points="0.00991189427 55.5294703 149.956718 55.5294703 149.956718 0.0529024751 0.00991189427 0.0529024751"></polygon>
    </defs>
    <g id="Page-1" stroke="none" stroke-width="1" fill="none" fill-rule="evenodd">
        <g id="Desktop" transform="translate(-693.000000, -2903.000000)">
            <g id="yoomee_logo_black" transform="translate(693.000000, 2903.000000)">
                <mask id="mask-2" fill="white">
                    <use xlink:href="#path-1"></use>
                </mask>
                <g id="Clip-2"></g>
                <path d="M92.2579295,2.99830134 C93.1400881,2.93056639 93.7546256,3.13541928 94.1722467,3.45926153 C94.7664648,3.92022173 95.422467,5.03957877 95.0924009,8.52982369 C94.968337,9.84266206 94.7405286,12.8320639 96.0606278,13.0514197 C96.8187225,13.1774957 97.9088656,12.8320639 99.0047907,11.8661405 C99.466685,11.4711024 100.216024,10.8370967 100.918943,10.1539791 C105.964593,5.25102387 110.843888,3.92648433 114.454956,4.28674854 C115.77902,4.41892232 117.354185,4.70980353 117.60446,6.45822209 C117.60446,8.17911818 116.84207,8.39781471 116.306002,8.5711898 C116.592621,9.27952263 116.946806,10.0949788 117.072357,11.0246451 C117.204846,12.0082026 117.18304,12.9716539 117.059471,13.9120325 C116.424945,18.7505489 111.356663,23.680697 107.755341,25.8941959 C105.21261,27.4573734 102.379626,28.7510944 99.7392621,28.6853371 C98.6884361,28.6299625 95.773348,28.6139764 95.0022026,24.6659026 C94.5272577,22.2374977 95.2701542,18.9011809 96.1488436,17.0026248 C96.1488436,17.0026248 95.1270925,17.8048966 93.5963656,17.3976629 C92.6063326,17.1343041 92.0563877,16.2123837 92.0563877,16.2123837 C91.0001101,18.1879039 87.9963106,21.6891908 87.0834251,22.5142057 C82.817511,26.3699886 79.1928965,28.6805577 74.9205396,28.6805577 C70.8498899,28.6805577 69.4058921,25.9400118 69.4463656,23.2222089 C69.4727974,21.4274801 70.2821035,18.5898638 71.2559471,16.9841666 C70.3665198,17.2755422 68.423293,17.338333 67.5636013,16.8658364 C66.2220264,16.1281683 66.0852423,14.4893452 66.0852423,14.4893452 C61.0442181,21.2015321 54.8772026,29.1868394 52.7415198,31.9732012 C53.5997247,33.2903245 55.7119493,36.494962 56.2399229,40.2703199 C56.8561123,39.5239171 58.3747797,37.5844893 59.7512115,36.1879299 C63.9906938,31.8851952 67.9993943,29.483324 71.4936674,29.483324 C75.9578194,29.483324 77.7368392,32.6757658 77.3848018,35.6320419 C80.6705947,32.3542309 83.9254956,29.9777396 88.2642621,29.9777396 C92.8643722,29.9777396 94.7535793,33.0917342 94.5071035,36.5335264 C94.2606278,39.9754834 92.5767621,43.3762391 90.8606828,46.1263437 C91.3856828,46.531435 93.6654185,46.8458833 95.2812225,46.6848686 C96.1612335,46.5966978 97.164978,46.267417 97.6090308,46.0121337 C97.5062775,45.1843171 97.4970264,44.2836566 97.5738436,43.405904 C98.1355176,37.0042101 103.340419,29.534908 110.278249,29.681255 C113.963491,29.7592079 115.540143,32.2714986 115.168117,35.1012042 C114.730341,38.4337306 111.882819,42.2155159 107.720485,45.3842258 C106.440033,46.3588839 105.146696,47.2961312 104.380011,47.7331946 C104.763106,48.1704229 106.276982,48.6925258 108.158425,48.6925258 C112.302753,48.6925258 116.435187,46.855442 117.524835,46.1215644 C117.360297,45.7527303 117.319328,44.4417048 117.428029,43.4991838 C118.199339,36.8023237 123.891079,29.0973501 130.592015,29.0973501 C133.347192,29.0973501 135.883976,30.3874454 135.6375,34.0749622 C135.424394,37.2642727 132.513767,41.2317936 127.72946,44.9830899 C126.827478,45.6899395 125.846531,46.4238172 124.852533,47.108418 C124.852533,47.108418 125.739317,48.345446 129.31239,48.345446 C133.912665,48.345446 139.29565,46.0617401 146.104791,41.9048581 C148.136233,40.6650284 150.048238,42.4053715 149.953414,44.1776868 C149.915253,44.8955784 149.1788,45.8460101 147.8587,46.7237627 C140.735022,51.4614183 134.540584,52.9548832 129.066244,52.9870202 C126.968888,52.9993806 125.072742,52.7127843 123.427037,52.1488208 C121.965694,51.648637 120.441079,50.7110601 119.861233,50.049532 C117.440749,51.2466771 114.410187,52.3185702 111.774615,52.8698437 C106.328855,54.0091421 101.491024,52.7597538 99.5167401,50.5030759 C97.8850771,51.142685 96.2550661,51.5373935 94.7005507,51.5922736 C92.8670154,51.6580309 89.4654185,51.251786 87.9631057,50.2197758 C87.5248348,50.8745469 86.2926211,52.3065394 84.7295154,52.3065394 C83.0679515,52.3065394 81.8985132,49.9845987 82.0215859,47.8556449 C82.1263216,46.0446004 82.9001101,44.2958522 85.3893172,43.8264869 C85.634967,43.7801767 86.3198789,43.6903578 86.6212004,43.8271461 C88.1821586,41.6146361 89.0525881,39.0723508 89.2873348,37.2697113 C89.439978,36.098111 89.1047907,34.9556812 88.0394273,34.7613759 C83.6639868,33.9643778 77.7954846,41.1226925 73.4618392,47.878388 C72.8281388,48.9708818 72.1988987,49.9427382 71.6430066,50.7280351 C71.0144273,51.6165 70.1937225,51.9767642 69.4167952,51.9609429 C67.7136013,51.9255098 66.788326,50.7928035 66.788326,49.6455944 C66.788326,48.7442746 68.4052863,46.6217482 69.1660242,45.2772673 C71.4702093,41.2047655 72.4035793,38.8623889 72.4800661,37.0231627 C72.5606828,35.0835701 72.0204846,34.2315271 70.5551762,34.2315271 C68.6061674,34.2315271 65.0051762,37.0727691 60.7242291,42.2461697 C59.1442731,44.1557678 56.7680617,47.3824891 56.7680617,47.3824891 C55.5493943,50.6309648 53.739978,52.4311322 51.5398678,52.7820025 C50.0768722,53.0156963 47.9605176,52.3472463 48.7348018,50.1126524 C49.3921256,48.2167331 51.989207,45.2312866 51.989207,45.2312866 C52.147467,41.5874432 50.4312225,37.4391311 49.463326,36.1879299 C47.9426762,37.9721112 45.6634361,40.3776081 44.0119493,42.0493923 C36.5218612,49.6330692 26.9188877,55.128664 17.2090308,55.5134842 C6.74917401,55.9284637 -0.260517621,51.338968 0.00743392071,41.800042 C0.121585903,37.7174871 1.78992291,33.0729464 6.49014317,28.4565875 C12.0338656,23.0119175 21.1470264,20.0002669 29.9193833,20.2517597 C37.3893172,20.4660064 44.3585352,22.8418385 49.5049559,28.1446112 C51.1346366,26.290058 54.4011013,22.2213468 56.3098018,19.5701253 C52.777533,21.2910214 50.0667952,22.2079976 47.1156938,22.2079976 C43.3546256,22.2079976 40.7215308,20.5118223 40.5973018,16.7496488 C40.4167401,11.2860262 47.3435022,4.23022035 50.9162445,0.940048966 C51.4090308,0.486340199 51.9396476,0.271434195 52.4535793,0.235836268 C54.5036894,0.0942685849 56.231663,2.27876175 54.319989,4.61899586 C52.5522026,6.78305318 45.6353524,13.0161513 45.6353524,16.7018552 C45.6353524,17.6854128 46.3575991,17.8119832 47.2780837,17.8492292 C50.4379956,17.9764588 57.094163,14.6773879 62.5529736,10.883407 C63.9493943,9.5722167 65.8386013,6.13042451 67.892511,3.42597088 C69.5299559,1.26932979 70.7748899,-0.0972350789 72.5745595,0.0660868926 C73.7040198,0.168760544 74.6347467,1.19945238 74.4450991,2.90666964 C74.3311123,3.93093407 73.6944383,5.19911022 72.789152,6.65631797 C72.3080947,7.43090249 71.8559471,8.20894793 71.2830396,9.07994351 C70.4317731,10.3741589 70.2464207,11.857241 71.0256608,12.1520776 C72.2580396,12.6179819 74.6378855,11.3751858 75.9964758,10.0885514 C80.1873899,6.35324117 85.1127753,4.03805746 89.8118392,3.85429964 C89.8118392,3.85429964 90.541685,3.12998071 92.2579295,2.99830134 L92.2579295,2.99830134 Z M75.9632709,24.1815401 C79.6727974,24.1815401 87.8755507,16.739266 89.3278084,12.7003845 C89.3278084,12.7003845 88.2936674,10.966304 88.7560573,8.31030314 C87.767511,8.53048291 84.9061123,9.4903085 81.4189427,12.1944325 C80.1784692,13.1567302 78.0880507,15.3087567 76.6879956,17.6414098 C74.1251101,21.9120074 74.4389868,24.1133107 75.9632709,24.1815401 L75.9632709,24.1815401 Z M46.3977423,31.9992404 C46.0143172,31.4525815 45.3412996,30.7071675 44.4809471,29.9777396 C41.1953194,27.191213 36.1022577,24.7980764 28.2984581,24.7980764 C22.1398678,24.7980764 14.5571035,27.1681403 9.9465859,32.1215259 C6.77048458,35.5338179 5.47714758,38.8734309 5.47714758,41.8568998 C5.47714758,47.8427901 9.48452643,50.6675515 16.5553414,50.5648779 C23.4518722,50.4651707 31.95,47.1982369 41.2632159,37.7161686 C43.0248899,35.9222638 44.7870595,33.9246598 46.3977423,31.9992404 L46.3977423,31.9992404 Z M106.515694,35.3861525 C105.243667,36.5803311 103.769604,38.6403963 103.065529,40.4670974 C102.79163,41.1774078 102.367731,43.0131732 102.422412,43.9421802 C103.079405,43.614053 104.606993,42.540347 105.349559,41.8788189 C106.499504,40.8954261 107.876432,39.3388408 108.593557,38.2817802 C110.278414,35.7971767 110.259581,33.9378442 109.157048,33.9378442 C108.378469,33.9378442 107.446421,34.51252 106.515694,35.3861525 L106.515694,35.3861525 Z M126.689207,34.984687 C126.083921,35.5260721 124.486784,37.2736666 123.331388,39.6478506 C122.932599,40.4670974 122.22076,42.6522497 122.330286,43.5265414 C122.79565,43.2809817 123.973348,42.5904478 125.369438,41.3685819 C127.176542,39.7876054 129.009747,37.7354509 129.776267,36.260609 C130.511233,34.8465802 130.515198,33.6378987 129.488326,33.5423117 C128.597247,33.4595795 127.599284,34.170714 126.689207,34.984687 L126.689207,34.984687 Z M111.058315,9.45685304 C107.020374,10.5330311 103.263767,14.4120515 101.526377,17.4395234 C100.32043,19.5402955 99.8202093,21.2237808 99.752478,22.1989333 C99.6371696,23.5036962 100.207269,23.9404301 100.955452,23.9953102 C103.798183,24.203624 110.889813,18.4013267 111.8587,13.4906256 C112.126156,12.1349378 112.056443,10.6213667 111.126872,9.5377724 L111.058315,9.45685304 L111.058315,9.45685304 Z" id="Fill-1" fill="#FFFFFF" mask="url(#mask-2)"></path>
            </g>
        </g>
    </g>
</svg>